<svg width="26" height="25" viewBox="0 0 26 25" fill="none" xmlns="http://www.w3.org/2000/svg">
<path d="M20.5837 11.4584H8.94824L14.0316 6.37503C14.4378 5.96878 14.4378 5.30211 14.0316 4.89586C13.9352 4.79928 13.8207 4.72266 13.6947 4.67038C13.5687 4.6181 13.4336 4.59119 13.2972 4.59119C13.1608 4.59119 13.0257 4.6181 12.8997 4.67038C12.7737 4.72266 12.6592 4.79928 12.5628 4.89586L5.69824 11.7604C5.29199 12.1667 5.29199 12.8229 5.69824 13.2292L12.5628 20.0938C12.9691 20.5 13.6253 20.5 14.0316 20.0938C14.4378 19.6875 14.4378 19.0313 14.0316 18.625L8.94824 13.5417H20.5837C21.1566 13.5417 21.6253 13.0729 21.6253 12.5C21.6253 11.9271 21.1566 11.4584 20.5837 11.4584Z" fill="#DDDDDD"/>
</svg>
