<svg width="26" height="25" viewBox="0 0 26 25" fill="none" xmlns="http://www.w3.org/2000/svg">
<g clip-path="url(#clip0_1255_111)">
<path d="M4.9585 7.29171C4.9585 6.73917 5.17799 6.20927 5.56869 5.81857C5.95939 5.42787 6.48929 5.20837 7.04183 5.20837H19.5418C20.0944 5.20837 20.6243 5.42787 21.015 5.81857C21.4057 6.20927 21.6252 6.73917 21.6252 7.29171V19.7917C21.6252 20.3442 21.4057 20.8741 21.015 21.2648C20.6243 21.6555 20.0944 21.875 19.5418 21.875H7.04183C6.48929 21.875 5.95939 21.6555 5.56869 21.2648C5.17799 20.8741 4.9585 20.3442 4.9585 19.7917V7.29171Z" stroke="#DDDDDD" stroke-width="1.5625" stroke-linecap="round" stroke-linejoin="round"/>
<path d="M17.4585 3.125V7.29167" stroke="#DDDDDD" stroke-width="1.5625" stroke-linecap="round" stroke-linejoin="round"/>
<path d="M9.12549 3.125V7.29167" stroke="#DDDDDD" stroke-width="1.5625" stroke-linecap="round" stroke-linejoin="round"/>
<path d="M4.9585 11.4584H21.6252" stroke="#DDDDDD" stroke-width="1.5625" stroke-linecap="round" stroke-linejoin="round"/>
<path d="M8.0835 14.5834H8.0965" stroke="#DDDDDD" stroke-width="1.5625" stroke-linecap="round" stroke-linejoin="round"/>
<path d="M11.2192 14.5834H11.2242" stroke="#DDDDDD" stroke-width="1.5625" stroke-linecap="round" stroke-linejoin="round"/>
<path d="M14.3442 14.5834H14.3492" stroke="#DDDDDD" stroke-width="1.5625" stroke-linecap="round" stroke-linejoin="round"/>
<path d="M17.4741 14.5834H17.4791" stroke="#DDDDDD" stroke-width="1.5625" stroke-linecap="round" stroke-linejoin="round"/>
<path d="M14.3491 17.7084H14.3541" stroke="#DDDDDD" stroke-width="1.5625" stroke-linecap="round" stroke-linejoin="round"/>
<path d="M8.09424 17.7084H8.09924" stroke="#DDDDDD" stroke-width="1.5625" stroke-linecap="round" stroke-linejoin="round"/>
<path d="M11.2192 17.7084H11.2242" stroke="#DDDDDD" stroke-width="1.5625" stroke-linecap="round" stroke-linejoin="round"/>
</g>
<defs>
<clipPath id="clip0_1255_111">
<rect width="25" height="25" fill="white" transform="translate(0.791992)"/>
</clipPath>
</defs>
</svg>
