<svg width="26" height="25" viewBox="0 0 26 25" fill="none" xmlns="http://www.w3.org/2000/svg">
<path d="M13.2918 4.16663C8.0835 4.16663 3.63558 7.40621 1.8335 11.9791C3.63558 16.552 8.0835 19.7916 13.2918 19.7916C18.5002 19.7916 22.9481 16.552 24.7502 11.9791C22.9481 7.40621 18.5002 4.16663 13.2918 4.16663ZM13.2918 17.1875C10.4168 17.1875 8.0835 14.8541 8.0835 11.9791C8.0835 9.10413 10.4168 6.77079 13.2918 6.77079C16.1668 6.77079 18.5002 9.10413 18.5002 11.9791C18.5002 14.8541 16.1668 17.1875 13.2918 17.1875ZM13.2918 8.85413C11.5627 8.85413 10.1668 10.25 10.1668 11.9791C10.1668 13.7083 11.5627 15.1041 13.2918 15.1041C15.021 15.1041 16.4168 13.7083 16.4168 11.9791C16.4168 10.25 15.021 8.85413 13.2918 8.85413Z" fill="#DDDDDD"/>
</svg>
