<svg width="26" height="25" viewBox="0 0 26 25" fill="none" xmlns="http://www.w3.org/2000/svg">
<path d="M13.2923 6.77079C16.1673 6.77079 18.5007 9.10413 18.5007 11.9791C18.5007 12.5104 18.3965 13.0208 18.2507 13.5L21.4381 16.6875C22.8861 15.4062 24.0319 13.802 24.7507 11.9687C22.9486 7.40621 18.5007 4.16663 13.2923 4.16663C11.9694 4.16663 10.6986 4.37496 9.50065 4.76038L11.7611 7.02079C12.2507 6.87496 12.7611 6.77079 13.2923 6.77079ZM3.61523 3.29163C3.20898 3.69788 3.20898 4.35413 3.61523 4.76038L5.66732 6.81246C3.97982 8.15621 2.63607 9.92704 1.83398 11.9791C3.63607 16.552 8.08398 19.7916 13.2923 19.7916C14.8757 19.7916 16.3861 19.4791 17.7819 18.9375L20.6152 21.7708C21.0215 22.177 21.6777 22.177 22.084 21.7708C22.4902 21.3645 22.4902 20.7083 22.084 20.302L5.0944 3.29163C4.68815 2.88538 4.02148 2.88538 3.61523 3.29163ZM13.2923 17.1875C10.4173 17.1875 8.08398 14.8541 8.08398 11.9791C8.08398 11.177 8.27148 10.4166 8.5944 9.74996L10.2298 11.3854C10.1986 11.5729 10.1673 11.7708 10.1673 11.9791C10.1673 13.7083 11.5632 15.1041 13.2923 15.1041C13.5007 15.1041 13.6882 15.0729 13.8861 15.0312L15.5215 16.6666C14.8444 17 14.0944 17.1875 13.2923 17.1875ZM16.3861 11.6354C16.2298 10.177 15.084 9.04163 13.6361 8.88538L16.3861 11.6354Z" fill="#DDDDDD"/>
</svg>
