<svg width="26" height="25" viewBox="0 0 26 25" fill="none" xmlns="http://www.w3.org/2000/svg">
<g clip-path="url(#clip0_1255_107)">
<path d="M10.167 11.4584C10.167 12.2872 10.4962 13.082 11.0823 13.6681C11.6683 14.2541 12.4632 14.5834 13.292 14.5834C14.1208 14.5834 14.9156 14.2541 15.5017 13.6681C16.0878 13.082 16.417 12.2872 16.417 11.4584C16.417 10.6296 16.0878 9.83472 15.5017 9.24866C14.9156 8.66261 14.1208 8.33337 13.292 8.33337C12.4632 8.33337 11.6683 8.66261 11.0823 9.24866C10.4962 9.83472 10.167 10.6296 10.167 11.4584Z" stroke="#DDDDDD" stroke-width="1.5625" stroke-linecap="round" stroke-linejoin="round"/>
<path d="M19.1845 17.351L14.7648 21.7708C14.3741 22.161 13.8445 22.3802 13.2924 22.3802C12.7402 22.3802 12.2106 22.161 11.82 21.7708L7.39913 17.351C6.23373 16.1855 5.4401 14.7007 5.11859 13.0842C4.79708 11.4677 4.96214 9.79214 5.59288 8.26945C6.22362 6.74676 7.29173 5.44529 8.66213 4.52963C10.0325 3.61397 11.6437 3.12524 13.2918 3.12524C14.94 3.12524 16.5511 3.61397 17.9215 4.52963C19.2919 5.44529 20.36 6.74676 20.9908 8.26945C21.6215 9.79214 21.7866 11.4677 21.4651 13.0842C21.1436 14.7007 20.3499 16.1855 19.1845 17.351Z" stroke="#DDDDDD" stroke-width="1.5625" stroke-linecap="round" stroke-linejoin="round"/>
</g>
<defs>
<clipPath id="clip0_1255_107">
<rect width="25" height="25" fill="white" transform="translate(0.791992)"/>
</clipPath>
</defs>
</svg>
