<svg width="26" height="25" viewBox="0 0 26 25" fill="none" xmlns="http://www.w3.org/2000/svg">
<g clip-path="url(#clip0_1255_79)">
<path d="M10.1672 5.20837H8.08382C7.53129 5.20837 7.00138 5.42787 6.61068 5.81857C6.21998 6.20927 6.00049 6.73917 6.00049 7.29171V19.7917C6.00049 20.3442 6.21998 20.8741 6.61068 21.2648C7.00138 21.6555 7.53129 21.875 8.08382 21.875H18.5005C19.053 21.875 19.5829 21.6555 19.9736 21.2648C20.3643 20.8741 20.5838 20.3442 20.5838 19.7917V7.29171C20.5838 6.73917 20.3643 6.20927 19.9736 5.81857C19.5829 5.42787 19.053 5.20837 18.5005 5.20837H16.4172" stroke="#DDDDDD" stroke-width="1.5" stroke-linecap="round" stroke-linejoin="round"/>
<path d="M10.167 5.20833C10.167 4.6558 10.3865 4.12589 10.7772 3.73519C11.1679 3.34449 11.6978 3.125 12.2503 3.125H14.3337C14.8862 3.125 15.4161 3.34449 15.8068 3.73519C16.1975 4.12589 16.417 4.6558 16.417 5.20833C16.417 5.76087 16.1975 6.29077 15.8068 6.68147C15.4161 7.07217 14.8862 7.29167 14.3337 7.29167H12.2503C11.6978 7.29167 11.1679 7.07217 10.7772 6.68147C10.3865 6.29077 10.167 5.76087 10.167 5.20833Z" stroke="#DDDDDD" stroke-width="1.5" stroke-linecap="round" stroke-linejoin="round"/>
<path d="M10.167 17.7083V12.5" stroke="#DDDDDD" stroke-width="1.5" stroke-linecap="round" stroke-linejoin="round"/>
<path d="M13.292 17.7083V16.6666" stroke="#DDDDDD" stroke-width="1.5" stroke-linecap="round" stroke-linejoin="round"/>
<path d="M16.417 17.7084V14.5834" stroke="#DDDDDD" stroke-width="1.5" stroke-linecap="round" stroke-linejoin="round"/>
</g>
<defs>
<clipPath id="clip0_1255_79">
<rect width="25" height="25" fill="white" transform="translate(0.791992)"/>
</clipPath>
</defs>
</svg>
