<svg width="26" height="25" viewBox="0 0 26 25" fill="none" xmlns="http://www.w3.org/2000/svg">
<g clip-path="url(#clip0_1255_101)">
<path d="M3.91699 12.5C3.91699 13.7311 4.15948 14.9502 4.63062 16.0877C5.10176 17.2251 5.79232 18.2586 6.66287 19.1291C7.53342 19.9997 8.56691 20.6902 9.70433 21.1614C10.8418 21.6325 12.0608 21.875 13.292 21.875C14.5231 21.875 15.7422 21.6325 16.8796 21.1614C18.0171 20.6902 19.0506 19.9997 19.9211 19.1291C20.7917 18.2586 21.4822 17.2251 21.9534 16.0877C22.4245 14.9502 22.667 13.7311 22.667 12.5C22.667 11.2689 22.4245 10.0498 21.9534 8.91234C21.4822 7.77492 20.7917 6.74142 19.9211 5.87087C19.0506 5.00032 18.0171 4.30977 16.8796 3.83863C15.7422 3.36749 14.5231 3.125 13.292 3.125C12.0608 3.125 10.8418 3.36749 9.70433 3.83863C8.56691 4.30977 7.53342 5.00032 6.66287 5.87087C5.79232 6.74142 5.10176 7.77492 4.63062 8.91234C4.15948 10.0498 3.91699 11.2689 3.91699 12.5Z" stroke="#DDDDDD" stroke-width="1.5" stroke-linecap="round" stroke-linejoin="round"/>
<path d="M10.167 10.4166C10.167 11.2454 10.4962 12.0403 11.0823 12.6263C11.6683 13.2124 12.4632 13.5416 13.292 13.5416C14.1208 13.5416 14.9156 13.2124 15.5017 12.6263C16.0878 12.0403 16.417 11.2454 16.417 10.4166C16.417 9.58782 16.0878 8.79297 15.5017 8.20692C14.9156 7.62087 14.1208 7.29163 13.292 7.29163C12.4632 7.29163 11.6683 7.62087 11.0823 8.20692C10.4962 8.79297 10.167 9.58782 10.167 10.4166Z" stroke="#DDDDDD" stroke-width="1.5" stroke-linecap="round" stroke-linejoin="round"/>
<path d="M7.2168 19.6343C7.47462 18.7762 8.00218 18.0241 8.72122 17.4895C9.44026 16.9549 10.3125 16.6664 11.2085 16.6666H15.3751C16.2723 16.6663 17.1456 16.9556 17.8651 17.4914C18.5847 18.0272 19.1121 18.781 19.3689 19.6406" stroke="#DDDDDD" stroke-width="1.5" stroke-linecap="round" stroke-linejoin="round"/>
</g>
<defs>
<clipPath id="clip0_1255_101">
<rect width="25" height="25" fill="white" transform="translate(0.791992)"/>
</clipPath>
</defs>
</svg>
