<svg width="611" height="536" viewBox="0 0 611 536" fill="none" xmlns="http://www.w3.org/2000/svg">
<path d="M0.606445 188.285V146.603L91.2055 3.84754H128.244V60.4315H106.755L53.7348 144.443V146.171H184.936V188.285H0.606445ZM107.403 225V175.543L108.483 157.294V3.84754H158.48V225H107.403Z" fill="#E0E0E0"/>
<path d="M304.421 230.399C285.128 230.399 268.498 225.828 254.532 216.685C240.566 207.47 229.804 194.26 222.245 177.055C214.686 159.777 210.942 139.008 211.014 114.748C211.086 90.4872 214.866 69.8981 222.353 52.9805C229.912 35.9909 240.638 23.0688 254.532 14.2141C268.498 5.28734 285.128 0.823975 304.421 0.823975C323.714 0.823975 340.344 5.28734 354.31 14.2141C368.348 23.0688 379.146 35.9909 386.705 52.9805C394.264 69.9701 398.008 90.5591 397.936 114.748C397.936 139.08 394.156 159.885 386.597 177.163C379.038 194.44 368.276 207.65 354.31 216.793C340.416 225.864 323.786 230.399 304.421 230.399ZM304.421 186.665C315.939 186.665 325.262 180.798 332.389 169.064C339.516 157.258 343.043 139.152 342.971 114.748C342.971 98.766 341.352 85.5919 338.112 75.2253C334.873 64.7868 330.373 57.0119 324.614 51.9007C318.855 46.7894 312.124 44.2338 304.421 44.2338C292.975 44.2338 283.724 50.0289 276.669 61.6193C269.614 73.1376 266.05 90.8471 265.978 114.748C265.906 130.945 267.454 144.371 270.622 155.026C273.861 165.68 278.397 173.635 284.228 178.891C290.059 184.074 296.79 186.665 304.421 186.665Z" fill="#E0E0E0"/>
<path d="M425.85 188.285V146.603L516.449 3.84754H553.487V60.4315H531.998L478.978 144.443V146.171H610.179V188.285H425.85ZM532.646 225V175.543L533.726 157.294V3.84754H583.723V225H532.646Z" fill="#E0E0E0"/>
<g clip-path="url(#clip0_987_17)">
<path d="M474.455 470.24C480.314 466.037 486.255 461.758 490.798 456.028C495.343 450.297 498.388 442.824 497.434 435.42C484.064 441.344 473.168 453.179 467.958 467.436C467.704 449.816 464.444 432.246 458.379 415.816C453.573 423.641 451.734 433.283 452.529 442.572C453.325 451.861 456.65 460.798 461.405 468.671C452.544 459.673 442.233 452.265 431.047 446.862C438.735 462.9 450.435 474.698 466.362 481.13L469.43 481.091C482.853 481.248 493.679 474.962 501.512 469.069C504.811 466.587 508.909 462.739 508.292 461.481C496.764 463.155 485.404 466.096 474.455 470.24Z" fill="#E0E0E0"/>
<path d="M278.179 477.652C278.039 476.688 279.691 458.319 280.877 455.129C282.063 451.94 309.23 431.421 310.814 432.296C312.398 433.17 325.478 443.847 327.047 445.48C328.616 447.114 343.059 477.522 343.059 477.522L278.179 477.652Z" fill="#E0E0E0"/>
<path d="M186.108 413.251C183.894 411.093 179.884 412.303 178.115 414.838C176.346 417.374 176.188 420.66 176.092 423.75C175.861 431.22 175.629 438.69 175.397 446.16C175.332 448.242 175.25 450.399 174.321 452.263C173.392 454.128 171.365 455.618 169.317 455.235C167.026 454.807 165.692 452.282 165.553 449.955C165.413 447.629 166.113 445.336 166.252 443.009C166.528 438.357 164.566 433.898 162.646 429.651C160.389 424.66 157.914 419.404 153.345 416.382C150.145 414.265 146.006 413.306 143.764 410.191C141.278 406.736 141.503 401.118 137.636 399.34C133.724 397.542 129.294 402.236 129.803 406.511C130.311 410.786 133.87 414.022 137.486 416.359C142.328 419.488 148.356 422.688 148.985 428.419C149.169 430.094 148.832 431.804 149.105 433.467C149.809 437.756 154.197 440.415 156.037 444.352C157.832 448.193 156.55 453.441 152.79 455.4C149.031 457.359 143.505 454.724 143.277 450.491C143.177 448.63 143.986 446.841 144.146 444.984C144.69 438.661 138.101 434.341 132.415 431.522C129.973 430.312 127.417 429.073 124.692 429.09C121.967 429.106 119.043 430.802 118.592 433.49C117.959 437.258 122.096 439.963 125.698 441.239C129.3 442.515 133.638 444.12 134.361 447.872C134.934 450.844 132.172 453.444 131.871 456.455C130.619 468.967 147.549 465.818 146.008 476.671H178.878C176.57 472.697 177.441 466.028 179.087 461.737C180.734 457.447 183.133 453.38 183.865 448.843C185.115 441.093 181.362 432.798 184.222 425.487C185.835 421.365 189.277 416.341 186.108 413.251Z" fill="#E0E0E0"/>
<path d="M496.615 343.322H315.869C312.637 343.322 310.007 340.692 310.007 337.459V74.186C310.007 70.9536 312.637 68.3242 315.869 68.3242H496.615C499.848 68.3242 502.478 70.9536 502.478 74.186V337.459C502.478 340.692 499.848 343.322 496.615 343.322ZM315.869 68.5742C312.774 68.5742 310.257 71.0918 310.257 74.186V337.459C310.257 340.554 312.774 343.072 315.869 343.072H496.615C499.71 343.072 502.228 340.554 502.228 337.459V74.186C502.228 71.0918 499.71 68.5742 496.615 68.5742H315.869Z" fill="#E0E0E0"/>
<path d="M288.188 343.322H107.441C104.209 343.322 101.579 340.692 101.579 337.459V74.186C101.579 70.9536 104.209 68.3242 107.441 68.3242H288.188C291.42 68.3242 294.05 70.9536 294.05 74.186V337.459C294.05 340.692 291.42 343.322 288.188 343.322ZM107.441 68.5742C104.347 68.5742 101.829 71.0918 101.829 74.186V337.459C101.829 340.554 104.347 343.072 107.441 343.072H288.188C291.282 343.072 293.8 340.554 293.8 337.459V74.186C293.8 71.0918 291.282 68.5742 288.188 68.5742H107.441Z" fill="#E0E0E0"/>
<path d="M552.694 404.391H52.6943V404.641H552.694V404.391Z" fill="#E0E0E0"/>
<path d="M120.427 418.656H104.367V418.906H120.427V418.656Z" fill="#E0E0E0"/>
<path d="M276.577 415.946H223.047V416.196H276.577V415.946Z" fill="#E0E0E0"/>
<path d="M157.677 427.946H121.427V428.196H157.677V427.946Z" fill="#E0E0E0"/>
<path d="M474.237 415.816H431.047V416.066H474.237V415.816Z" fill="#E0E0E0"/>
<path d="M489.477 415.816H483.146V416.066H489.477V415.816Z" fill="#E0E0E0"/>
<path d="M422.796 422.046H368.906V422.296H422.796V422.046Z" fill="#E0E0E0"/>
<path d="M134.203 166.687C135.334 161.897 132.368 157.097 127.578 155.966C122.788 154.836 117.988 157.802 116.857 162.592C115.726 167.382 118.693 172.182 123.483 173.313C128.273 174.444 133.073 171.477 134.203 166.687Z" fill="#E6E6E6"/>
<path d="M154.562 172.976C154.562 176.416 151.773 179.206 148.332 179.206C144.892 179.206 142.103 176.416 142.103 172.976C142.103 169.535 144.892 166.746 148.332 166.746C151.773 166.746 154.562 169.535 154.562 172.976Z" fill="#E6E6E6"/>
<path d="M151.795 151.887C151.795 154.348 149.8 156.342 147.339 156.342C144.879 156.342 142.884 154.348 142.884 151.887C142.884 149.426 144.879 147.431 147.339 147.431C149.8 147.431 151.795 149.426 151.795 151.887Z" fill="#E6E6E6"/>
<path d="M137.405 182.328C137.405 183.964 136.079 185.291 134.442 185.291C132.805 185.291 131.479 183.964 131.479 182.328C131.479 180.691 132.805 179.364 134.442 179.364C136.079 179.364 137.405 180.691 137.405 182.328Z" fill="#E6E6E6"/>
<path d="M140.368 137.391C140.368 139.028 139.041 140.355 137.405 140.355C135.768 140.355 134.441 139.028 134.441 137.391C134.441 135.755 135.768 134.428 137.405 134.428C139.041 134.428 140.368 135.755 140.368 137.391Z" fill="#E6E6E6"/>
<path d="M196.107 202.042C196.107 202.042 188.947 187.59 189.478 180.164C190.008 172.739 191.997 160.011 190.936 159.878C189.876 159.745 178.473 160.939 173.036 175.391C167.6 189.844 167.062 195.929 167.062 195.929L196.107 202.042Z" fill="#E6E6E6"/>
<path d="M193.546 196.295C184.554 193.867 175.946 192.005 168.001 191.119C167.585 192.782 167.248 194.4 167.062 195.929L195.519 200.808L193.546 196.295Z" fill="#E0E0E0"/>
<path d="M161.518 254.684C161.518 254.684 150.809 283.202 147.801 283.924C144.793 284.646 143.589 278.028 142.747 272.252C141.905 266.477 143.328 253.253 143.328 253.253L161.518 254.684Z" fill="#E0E0E0"/>
<path d="M328.222 183.819C328.222 183.819 319.677 182.158 304.487 202.807C289.297 223.456 295.744 225.718 275.553 224.276C261.259 223.255 259.629 222.076 259.629 222.076L256.562 214.874L250.113 219.936C250.113 219.936 232.571 212.89 209.074 204.526C185.577 196.161 181.543 195.745 149.5 195.687C108.763 195.612 80.444 213.685 79.0082 218.234C78.0481 221.277 77.5841 227.728 100.607 234.374L109.626 236.51C109.626 236.51 106.54 238.884 111.05 243.63C115.56 248.377 152.111 258.346 188.662 254.786C188.662 254.786 222.84 285.641 238.979 278.758L210.735 250.988L229.723 248.377C229.723 248.377 240.641 257.634 252.033 258.109C252.033 258.109 243.594 247.663 244.319 246.758C244.319 246.758 262.239 242.918 262.951 242.918C263.663 242.918 273.341 252.184 278.616 247.428C279.245 246.861 275.293 239.833 275.293 239.833C275.293 239.833 283.126 235.323 289.059 236.273C294.993 237.222 303.3 257.159 323 263.568C323 263.568 309.234 238.172 311.607 227.966C313.981 217.76 329.408 188.329 328.222 183.819Z" fill="#E6E6E6"/>
<path d="M171.901 217.678C177.991 221.563 179.351 231.442 174.228 236.642C175.086 230.008 174.203 223.935 171.901 217.678Z" fill="#E0E0E0"/>
<path d="M167.017 217.003C173.106 220.887 174.466 230.767 169.343 235.966C170.201 229.333 169.319 223.26 167.017 217.003Z" fill="#E0E0E0"/>
<path d="M161.437 216.259C167.526 220.143 168.886 230.023 163.763 235.222C164.621 228.589 163.739 222.516 161.437 216.259Z" fill="#E0E0E0"/>
<path d="M155.857 215.514C161.947 219.399 163.307 229.278 158.184 234.477C159.042 227.844 158.159 221.771 155.857 215.514Z" fill="#E0E0E0"/>
<path d="M111.164 213.994C112.49 213.994 113.566 215.069 113.566 216.395C113.566 217.722 112.49 218.797 111.164 218.797C109.838 218.797 108.763 217.722 108.763 216.395C108.763 215.069 109.838 213.994 111.164 213.994Z" fill="#E0E0E0"/>
<path opacity="0.7" d="M84.5293 227.891C85.4174 223.495 101.421 219.392 124.278 224.307C148.512 229.519 170.272 241.108 178.023 244.956C180.249 246.061 188.662 254.786 188.662 254.786C152.111 258.346 115.559 248.377 111.05 243.63C106.54 238.884 109.626 236.51 109.626 236.51L100.606 234.374C92.9053 232.151 87.8349 229.95 84.5293 227.891Z" fill="white"/>
<path opacity="0.7" d="M210.735 250.988L206.555 246.645L224.753 245.99C226.105 245.941 227.427 246.404 228.453 247.286L229.723 248.377L210.735 250.988Z" fill="white"/>
<path opacity="0.7" d="M244.319 246.759C244.319 246.759 242.29 245.15 243.194 244.117C244.098 243.084 258.428 240.373 261.01 241.406C263.592 242.439 262.951 242.919 262.951 242.919L244.319 246.759Z" fill="white"/>
<path opacity="0.7" d="M275.293 239.833L274.17 237.879L284.927 236.34C284.927 236.34 276.847 239.146 275.293 239.833Z" fill="white"/>
<path d="M137.58 231.35C138.053 231.37 116.466 224.712 101.124 234.497L109.626 236.51C109.626 236.51 112.642 230.295 137.58 231.35Z" fill="#E6E6E6"/>
<path d="M437.649 207.619C437.649 207.619 432.397 202.42 431.688 202.812C430.979 203.204 434.918 207.244 434.901 208.274C434.884 209.305 430.503 211.825 430.704 212.526C430.905 213.228 437.612 209.728 437.612 209.728L438.395 208.93L437.649 207.619Z" fill="#E0E0E0"/>
<path d="M463.063 204.115C463.063 204.115 459.227 198.242 458.656 198.656C458.085 199.07 456.754 204.02 456.754 204.02L455.494 204.001C455.494 204.001 451.701 200.298 450.917 200.779C450.133 201.26 450.33 202.73 450.33 202.73C446.881 203.396 443.566 204.626 440.517 206.37L441.4 208.368L440.804 210.858C440.804 210.858 446.787 213.756 449.092 214.209C449.092 214.209 448.571 216.302 449.373 216.388C450.175 216.474 455.024 213.285 455.024 213.285L462.701 205.965L463.063 204.115Z" fill="#E0E0E0"/>
<path d="M463.352 213.333C463.352 213.333 458.423 219.507 458.163 218.235C458.018 217.281 458.031 216.309 458.203 215.358L460.733 213.015L463.352 213.333Z" fill="#E0E0E0"/>
<path d="M474.394 208.181C474.394 208.181 462.043 197.38 440.662 207.673C439.676 208.038 438.59 208.02 437.617 207.623C437.026 208.151 436.974 209.058 437.502 209.65C437.528 209.678 437.554 209.705 437.581 209.732C438.692 209.506 439.838 209.523 440.942 209.78C440.942 209.78 447.712 213.874 460.116 214.059C472.52 214.245 475.324 208.884 475.324 208.884L473.528 209.74L474.394 208.181Z" fill="#E6E6E6"/>
<path d="M437.648 207.619C438.621 208.016 439.707 208.034 440.692 207.669C462.074 197.376 474.425 208.177 474.425 208.177L473.848 209.217L437.166 208.662C437.189 208.266 437.361 207.893 437.648 207.619Z" fill="#F5F5F5"/>
<path d="M467.937 205.651C467.937 205.651 463.562 208.526 467.838 212.23C467.838 212.23 464.525 211.076 464.736 208.612C464.948 206.148 467.937 205.651 467.937 205.651Z" fill="#E0E0E0"/>
<path d="M469.289 208.052C469.411 208.529 469.763 208.848 470.141 208.709C470.519 208.569 470.675 208.121 470.553 207.644C470.43 207.167 470.078 206.848 469.709 206.982C469.341 207.115 469.166 207.554 469.289 208.052Z" fill="#E0E0E0"/>
<path d="M462.485 207.971L462.818 210.182C462.818 210.182 457.488 210.871 456.928 210.089C456.369 209.307 452.164 209.952 451.799 209.082C451.433 208.212 462.485 207.971 462.485 207.971Z" fill="#E0E0E0"/>
<path d="M107.427 325.475C107.427 325.475 102.175 320.276 101.466 320.668C100.758 321.06 104.697 325.1 104.679 326.13C104.662 327.161 100.281 329.681 100.482 330.382C100.684 331.084 107.391 327.584 107.391 327.584L108.174 326.787L107.427 325.475Z" fill="#E0E0E0"/>
<path d="M132.841 321.971C132.841 321.971 129.006 316.098 128.434 316.512C127.863 316.926 126.532 321.876 126.532 321.876L125.272 321.857C125.272 321.857 121.479 318.154 120.695 318.635C119.911 319.116 120.109 320.586 120.109 320.586C116.66 321.253 113.344 322.483 110.295 324.226L111.178 326.224L110.582 328.714C110.582 328.714 116.565 331.612 118.87 332.066C118.87 332.066 118.349 334.158 119.151 334.244C119.954 334.331 124.802 331.141 124.802 331.141L132.479 323.821L132.841 321.971Z" fill="#E0E0E0"/>
<path d="M133.131 331.189C133.131 331.189 128.201 337.363 127.942 336.091C127.796 335.137 127.81 334.165 127.982 333.215L130.511 330.871L133.131 331.189Z" fill="#E0E0E0"/>
<path d="M144.173 326.037C144.173 326.037 131.822 315.236 110.44 325.529C109.455 325.894 108.369 325.876 107.396 325.479C106.804 326.007 106.753 326.915 107.281 327.506C107.306 327.534 107.332 327.562 107.36 327.588C108.47 327.363 109.616 327.379 110.72 327.636C110.72 327.636 117.49 331.73 129.894 331.916C142.298 332.101 145.102 326.74 145.102 326.74L143.306 327.597L144.173 326.037Z" fill="#E6E6E6"/>
<path d="M107.427 325.475C108.399 325.872 109.486 325.89 110.471 325.525C131.853 315.232 144.204 326.033 144.204 326.033L143.626 327.073L106.944 326.518C106.967 326.122 107.14 325.749 107.427 325.475Z" fill="#F5F5F5"/>
<path d="M137.716 323.507C137.716 323.507 133.341 326.382 137.616 330.086C137.616 330.086 134.303 328.932 134.515 326.468C134.726 324.004 137.716 323.507 137.716 323.507Z" fill="#E0E0E0"/>
<path d="M139.067 325.908C139.19 326.385 139.542 326.704 139.92 326.565C140.298 326.426 140.453 325.977 140.331 325.5C140.208 325.023 139.857 324.705 139.488 324.838C139.119 324.972 138.945 325.41 139.067 325.908Z" fill="#E0E0E0"/>
<path d="M132.263 325.827L132.596 328.038C132.596 328.038 127.267 328.727 126.707 327.945C126.147 327.163 121.943 327.809 121.577 326.938C121.212 326.068 132.263 325.827 132.263 325.827Z" fill="#E0E0E0"/>
<path d="M472.552 173.814C472.552 173.814 466.613 167.934 465.811 168.377C465.009 168.821 469.465 173.39 469.445 174.556C469.426 175.721 464.47 178.571 464.698 179.365C464.926 180.158 472.511 176.199 472.511 176.199L473.397 175.298L472.552 173.814Z" fill="#E0E0E0"/>
<path d="M501.297 169.851C501.297 169.851 496.959 163.21 496.312 163.678C495.666 164.146 494.161 169.744 494.161 169.744L492.736 169.722C492.736 169.722 488.446 165.535 487.559 166.079C486.672 166.623 486.896 168.285 486.896 168.285C482.995 169.039 479.246 170.43 475.797 172.402L476.796 174.662L476.121 177.478C476.121 177.478 482.888 180.755 485.495 181.268C485.495 181.268 484.906 183.635 485.813 183.732C486.721 183.83 492.204 180.223 492.204 180.223L500.887 171.944L501.297 169.851Z" fill="#E0E0E0"/>
<path d="M501.623 180.277C501.623 180.277 496.048 187.26 495.755 185.822C495.59 184.742 495.605 183.643 495.8 182.568L498.66 179.917L501.623 180.277Z" fill="#E0E0E0"/>
<path d="M514.112 174.45C514.112 174.45 500.143 162.235 475.96 173.875C474.846 174.288 473.617 174.268 472.517 173.819C471.848 174.416 471.79 175.443 472.387 176.112C472.416 176.144 472.445 176.175 472.476 176.204C473.732 175.949 475.029 175.968 476.277 176.259C476.277 176.259 483.934 180.889 497.963 181.099C511.992 181.309 515.163 175.245 515.163 175.245L513.132 176.214L514.112 174.45Z" fill="#E6E6E6"/>
<path d="M472.552 173.814C473.652 174.263 474.881 174.283 475.995 173.871C500.178 162.23 514.147 174.446 514.147 174.446L513.494 175.621L472.007 174.994C472.033 174.546 472.228 174.124 472.552 173.814Z" fill="#F5F5F5"/>
<path d="M506.808 171.589C506.808 171.589 501.86 174.841 506.696 179.029C506.696 179.029 502.948 177.724 503.188 174.938C503.427 172.151 506.808 171.589 506.808 171.589Z" fill="#E0E0E0"/>
<path d="M508.338 174.305C508.477 174.844 508.875 175.204 509.302 175.047C509.729 174.89 509.906 174.382 509.767 173.843C509.629 173.303 509.231 172.943 508.814 173.094C508.397 173.245 508.199 173.741 508.338 174.305Z" fill="#E0E0E0"/>
<path d="M500.643 174.212L501.019 176.714C501.019 176.714 494.991 177.492 494.358 176.608C493.725 175.723 488.97 176.454 488.557 175.469C488.144 174.485 500.643 174.212 500.643 174.212Z" fill="#E0E0E0"/>
<path d="M408.292 191.291C408.292 191.291 404.503 187.54 403.992 187.823C403.481 188.106 406.323 191.02 406.31 191.764C406.298 192.507 403.137 194.325 403.282 194.832C403.428 195.338 408.266 192.813 408.266 192.813L408.831 192.237L408.292 191.291Z" fill="#E0E0E0"/>
<path d="M426.629 188.763C426.629 188.763 423.862 184.526 423.449 184.825C423.037 185.123 422.077 188.695 422.077 188.695L421.168 188.681C421.168 188.681 418.432 186.009 417.866 186.356C417.3 186.703 417.443 187.764 417.443 187.764C414.954 188.245 412.562 189.132 410.362 190.39L410.999 191.832L410.569 193.628C410.569 193.628 414.886 195.719 416.549 196.046C416.549 196.046 416.173 197.556 416.752 197.618C417.331 197.68 420.829 195.379 420.829 195.379L426.368 190.098L426.629 188.763Z" fill="#E0E0E0"/>
<path d="M426.837 195.414C426.837 195.414 423.281 199.868 423.094 198.95C422.989 198.262 422.998 197.561 423.122 196.875L424.947 195.184L426.837 195.414Z" fill="#E0E0E0"/>
<path d="M434.804 191.697C434.804 191.697 425.893 183.904 410.466 191.33C409.755 191.593 408.972 191.58 408.27 191.294C407.843 191.675 407.806 192.33 408.187 192.756C408.205 192.777 408.224 192.797 408.244 192.815C409.045 192.653 409.872 192.665 410.668 192.851C410.668 192.851 415.553 195.804 424.502 195.938C433.451 196.072 435.474 192.204 435.474 192.204L434.178 192.822L434.804 191.697Z" fill="#E6E6E6"/>
<path d="M408.292 191.291C408.994 191.577 409.778 191.59 410.489 191.327C425.915 183.901 434.826 191.694 434.826 191.694L434.409 192.444L407.944 192.044C407.961 191.758 408.085 191.489 408.292 191.291Z" fill="#F5F5F5"/>
<path d="M430.145 189.871C430.145 189.871 426.988 191.945 430.073 194.618C430.073 194.618 427.682 193.785 427.835 192.007C427.988 190.23 430.145 189.871 430.145 189.871Z" fill="#E0E0E0"/>
<path d="M431.121 191.604C431.209 191.948 431.463 192.178 431.736 192.077C432.008 191.977 432.121 191.653 432.032 191.309C431.944 190.965 431.69 190.735 431.424 190.831C431.158 190.928 431.032 191.244 431.121 191.604Z" fill="#E0E0E0"/>
<path d="M426.211 191.545L426.451 193.14C426.451 193.14 422.606 193.637 422.202 193.073C421.799 192.509 418.765 192.975 418.502 192.347C418.238 191.719 426.211 191.545 426.211 191.545Z" fill="#E0E0E0"/>
<path d="M447.819 151.19C447.819 151.19 445.091 148.49 444.723 148.694C444.355 148.897 446.401 150.995 446.392 151.53C446.383 152.065 444.108 153.374 444.212 153.738C444.317 154.103 447.8 152.285 447.8 152.285L448.207 151.871L447.819 151.19Z" fill="#E0E0E0"/>
<path d="M461.017 149.37C461.017 149.37 459.025 146.321 458.728 146.536C458.432 146.751 457.741 149.321 457.741 149.321L457.086 149.311C457.086 149.311 455.117 147.388 454.709 147.638C454.302 147.888 454.405 148.651 454.405 148.651C452.614 148.997 450.892 149.636 449.309 150.542L449.767 151.579L449.458 152.872C449.458 152.872 452.564 154.377 453.762 154.613C453.762 154.613 453.491 155.699 453.908 155.744C454.324 155.789 456.842 154.133 456.842 154.133L460.829 150.331L461.017 149.37Z" fill="#E0E0E0"/>
<path d="M461.166 154.157C461.166 154.157 458.606 157.364 458.472 156.703C458.396 156.207 458.403 155.703 458.492 155.209L459.806 153.992L461.166 154.157Z" fill="#E0E0E0"/>
<path d="M466.901 151.482C466.901 151.482 460.487 145.873 449.384 151.218C448.872 151.408 448.308 151.398 447.803 151.192C447.496 151.466 447.469 151.938 447.743 152.245C447.756 152.26 447.77 152.274 447.784 152.287C448.361 152.17 448.956 152.179 449.529 152.313C449.529 152.313 453.045 154.438 459.486 154.535C465.928 154.631 467.384 151.847 467.384 151.847L466.451 152.292L466.901 151.482Z" fill="#E6E6E6"/>
<path d="M447.819 151.19C448.324 151.396 448.888 151.405 449.4 151.216C460.503 145.871 466.917 151.48 466.917 151.48L466.617 152.02L447.568 151.732C447.58 151.526 447.67 151.332 447.819 151.19Z" fill="#F5F5F5"/>
<path d="M463.547 150.168C463.547 150.168 461.275 151.661 463.496 153.584C463.496 153.584 461.775 152.985 461.885 151.706C461.995 150.426 463.547 150.168 463.547 150.168Z" fill="#E0E0E0"/>
<path d="M464.25 151.415C464.313 151.663 464.496 151.828 464.692 151.756C464.889 151.684 464.969 151.451 464.906 151.203C464.842 150.955 464.66 150.79 464.468 150.859C464.277 150.929 464.186 151.156 464.25 151.415Z" fill="#E0E0E0"/>
<path d="M460.716 151.373L460.889 152.521C460.889 152.521 458.121 152.879 457.83 152.473C457.54 152.067 455.357 152.402 455.167 151.95C454.977 151.498 460.716 151.373 460.716 151.373Z" fill="#E0E0E0"/>
<path d="M178.731 111.884C178.731 111.884 181.458 109.184 181.826 109.388C182.194 109.591 180.148 111.689 180.157 112.224C180.166 112.76 182.441 114.068 182.337 114.432C182.232 114.797 178.749 112.979 178.749 112.979L178.343 112.565L178.731 111.884Z" fill="#E0E0E0"/>
<path d="M165.533 110.064C165.533 110.064 167.525 107.015 167.822 107.23C168.119 107.445 168.81 110.015 168.81 110.015L169.464 110.005C169.464 110.005 171.433 108.082 171.841 108.332C172.248 108.582 172.145 109.345 172.145 109.345C173.936 109.691 175.658 110.33 177.242 111.235L176.783 112.273L177.093 113.566C177.093 113.566 173.986 115.071 172.789 115.306C172.789 115.306 173.059 116.393 172.642 116.438C172.226 116.483 169.708 114.826 169.708 114.826L165.721 111.025L165.533 110.064Z" fill="#E0E0E0"/>
<path d="M165.383 114.851C165.383 114.851 167.943 118.057 168.077 117.397C168.153 116.901 168.146 116.397 168.057 115.903L166.743 114.686L165.383 114.851Z" fill="#E0E0E0"/>
<path d="M159.649 112.176C159.649 112.176 166.063 106.567 177.166 111.912C177.678 112.101 178.242 112.092 178.747 111.886C179.054 112.16 179.081 112.632 178.807 112.939C178.794 112.953 178.78 112.968 178.766 112.981C178.189 112.864 177.594 112.873 177.021 113.006C177.021 113.006 173.505 115.132 167.064 115.229C160.622 115.325 159.166 112.541 159.166 112.541L160.099 112.986L159.649 112.176Z" fill="#E6E6E6"/>
<path d="M178.731 111.884C178.226 112.09 177.662 112.099 177.15 111.91C166.047 106.565 159.633 112.174 159.633 112.174L159.933 112.714L178.982 112.426C178.97 112.22 178.88 112.026 178.731 111.884Z" fill="#F5F5F5"/>
<path d="M163.002 110.862C163.002 110.862 165.274 112.355 163.054 114.279C163.054 114.279 164.774 113.679 164.664 112.4C164.554 111.12 163.002 110.862 163.002 110.862Z" fill="#E0E0E0"/>
<path d="M162.299 112.109C162.236 112.357 162.053 112.522 161.857 112.45C161.661 112.378 161.58 112.145 161.643 111.897C161.707 111.649 161.89 111.484 162.081 111.553C162.273 111.623 162.363 111.85 162.299 112.109Z" fill="#E0E0E0"/>
<path d="M165.833 112.067L165.66 113.215C165.66 113.215 168.428 113.573 168.719 113.166C169.009 112.76 171.193 113.096 171.382 112.644C171.572 112.192 165.833 112.067 165.833 112.067Z" fill="#E0E0E0"/>
<path d="M161.992 87.959C161.992 87.959 166.562 83.4344 167.179 83.7757C167.796 84.117 164.368 87.6326 164.383 88.5295C164.397 89.4263 168.21 91.6191 168.035 92.2298C167.86 92.8405 162.023 89.7943 162.023 89.7943L161.342 89.1005L161.992 87.959Z" fill="#E0E0E0"/>
<path d="M139.874 84.9096C139.874 84.9096 143.212 79.7991 143.709 80.1593C144.207 80.5196 145.364 84.8271 145.364 84.8271L146.461 84.8105C146.461 84.8105 149.762 81.5881 150.444 82.0068C151.127 82.4253 150.955 83.7042 150.955 83.7042C153.956 84.2845 156.841 85.3549 159.495 86.8724L158.726 88.6112L159.245 90.7779C159.245 90.7779 154.039 93.2997 152.033 93.6945C152.033 93.6945 152.486 95.5154 151.788 95.5904C151.09 95.6655 146.87 92.89 146.87 92.89L140.189 86.5199L139.874 84.9096Z" fill="#E0E0E0"/>
<path d="M139.623 92.9316C139.623 92.9316 143.913 98.3046 144.139 97.1978C144.265 96.3672 144.254 95.5213 144.104 94.6945L141.903 92.6548L139.623 92.9316Z" fill="#E0E0E0"/>
<path d="M130.014 88.4481C130.014 88.4481 140.762 79.0489 159.37 88.0057C160.227 88.3233 161.172 88.3079 162.019 87.9624C162.533 88.4219 162.578 89.2117 162.119 89.7264C162.097 89.7511 162.074 89.7748 162.05 89.7976C161.084 89.6016 160.086 89.616 159.126 89.8399C159.126 89.8399 153.234 93.4021 142.44 93.5638C131.645 93.7254 129.205 89.0595 129.205 89.0595L130.768 89.8052L130.014 88.4481Z" fill="#E6E6E6"/>
<path d="M161.991 87.9589C161.145 88.3045 160.2 88.3199 159.342 88.0024C140.735 79.0454 129.986 88.4446 129.986 88.4446L130.489 89.3494L162.411 88.8668C162.391 88.522 162.241 88.1976 161.991 87.9589Z" fill="#F5F5F5"/>
<path d="M135.633 86.2466C135.633 86.2466 139.44 88.7485 135.72 91.9716C135.72 91.9716 138.603 90.9672 138.419 88.8231C138.234 86.679 135.633 86.2466 135.633 86.2466Z" fill="#E0E0E0"/>
<path d="M134.457 88.3362C134.35 88.7512 134.044 89.0284 133.715 88.9074C133.386 88.7864 133.25 88.3958 133.357 87.9809C133.464 87.5658 133.77 87.2885 134.091 87.4048C134.412 87.521 134.563 87.9025 134.457 88.3362Z" fill="#E0E0E0"/>
<path d="M140.378 88.2654L140.088 90.1899C140.088 90.1899 144.726 90.789 145.213 90.1084C145.7 89.4278 149.359 89.9898 149.677 89.2324C149.995 88.475 140.378 88.2654 140.378 88.2654Z" fill="#E0E0E0"/>
<path d="M513.875 483.508C513.875 486.895 420.358 489.64 305 489.64C189.642 489.64 96.125 486.895 96.125 483.508C96.125 480.121 189.642 477.376 305 477.376C420.358 477.376 513.875 480.121 513.875 483.508Z" fill="#F5F5F5"/>
<path d="M197.722 478.375C197.722 478.375 188.606 470.969 186.456 463.803C184.305 456.636 177.139 447.558 169.733 445.885C162.327 444.213 155.16 432.268 155.16 432.268C155.16 432.268 164.477 442.063 170.927 443.257C177.377 444.452 182.633 444.691 187.411 451.619C192.189 458.547 193.622 466.908 199.834 468.819C206.045 470.73 208.195 478.375 208.195 478.375H197.722Z" fill="#263238"/>
<path d="M216.619 478.322C216.619 478.322 211.564 477.164 210.168 473.067C208.129 467.079 205.629 457.777 202.046 455.866C198.463 453.955 183.651 449.416 183.412 446.788C183.412 446.788 189.623 450.372 195.835 451.805C202.046 453.238 208.257 452.999 211.602 459.449C214.946 465.9 213.513 470.916 216.619 474.022C219.724 477.128 223.547 478.375 223.547 478.375L216.619 478.322Z" fill="#263238"/>
<path d="M159.379 420.49C159.379 421.684 168.218 436.735 183.746 443.901C199.274 451.068 214.325 453.457 218.625 457.757C222.925 462.058 228.479 478.375 228.479 478.375H236.064C236.064 478.375 232.481 458.952 222.925 452.98C213.369 447.007 194.496 447.963 183.985 440.557C173.474 433.151 159.379 420.49 159.379 420.49Z" fill="#263238"/>
<path d="M172.279 419.295C172.279 419.295 175.863 419.056 180.402 426.223C184.941 433.39 187.569 437.212 192.586 439.124C197.602 441.035 205.153 442.672 207.397 445.574C209.641 448.476 216.287 456.085 216.287 456.085H221.731C221.731 456.085 214.325 444.379 206.441 440.318C198.558 436.257 196.169 439.601 190.435 433.39C184.702 427.179 179.924 418.817 172.279 419.295Z" fill="#263238"/>
<path d="M369.756 475.508C369.756 475.508 362.111 470.969 359.961 463.803C357.811 456.636 350.644 447.558 343.239 445.885C335.833 444.213 328.666 432.268 328.666 432.268C328.666 432.268 337.983 442.063 344.433 443.257C350.883 444.452 356.139 444.691 360.917 451.619C365.695 458.547 367.128 466.908 373.34 468.819C379.551 470.73 381.701 478.375 381.701 478.375L369.756 475.508Z" fill="#263238"/>
<path d="M390.124 477.217C390.124 477.217 384.869 478.172 383.674 471.961C382.48 465.75 379.135 456.672 375.552 454.761C371.968 452.85 357.157 448.311 356.918 445.683C356.918 445.683 363.129 449.266 369.341 450.699C375.552 452.133 381.763 451.894 385.108 458.344C388.452 464.794 387.019 469.811 390.124 472.917C393.23 476.022 397.052 477.27 397.052 477.27L390.124 477.217Z" fill="#263238"/>
<path d="M223.667 483.116C222.551 485.047 220.387 486.128 218.157 486.128H190.927C179.709 486.128 172.004 474.681 186.643 467.747C199.91 461.462 229.418 473.161 223.667 483.116Z" fill="#007FFF"/>
<path opacity="0.2" d="M223.667 483.116C222.551 485.047 220.387 486.128 218.157 486.128H190.927C179.709 486.128 172.004 474.681 186.643 467.747C199.91 461.462 229.418 473.161 223.667 483.116Z" fill="white"/>
<path opacity="0.4" d="M215.059 473.44C214.693 474.31 212.726 474.342 210.665 473.512C208.604 472.682 207.23 471.304 207.595 470.434C207.96 469.564 209.927 469.532 211.988 470.362C214.049 471.192 215.424 472.57 215.059 473.44Z" fill="white"/>
<path opacity="0.4" d="M218.723 477.545C218.503 478.01 217.62 478.095 216.749 477.735C215.879 477.375 215.352 476.705 215.571 476.24C215.791 475.774 216.675 475.689 217.545 476.049C218.415 476.41 218.943 477.079 218.723 477.545Z" fill="white"/>
<path opacity="0.4" d="M213.171 476.783C213.011 477.134 212.461 477.242 211.943 477.024C211.424 476.806 211.133 476.345 211.293 475.993C211.453 475.642 212.003 475.534 212.521 475.752C213.04 475.97 213.331 476.432 213.171 476.783Z" fill="white"/>
<path d="M250.733 477.822C250.06 478.986 248.754 479.638 247.409 479.638H230.986C224.22 479.638 219.572 472.734 228.402 468.552C236.404 464.761 254.202 471.817 250.733 477.822Z" fill="#007FFF"/>
<path opacity="0.2" d="M250.733 477.822C250.06 478.986 248.754 479.638 247.409 479.638H230.986C224.22 479.638 219.572 472.734 228.402 468.552C236.404 464.761 254.202 471.817 250.733 477.822Z" fill="white"/>
<path opacity="0.4" d="M245.541 471.986C245.321 472.51 244.134 472.53 242.891 472.029C241.648 471.529 240.819 470.697 241.039 470.173C241.26 469.648 242.446 469.629 243.689 470.129C244.932 470.63 245.761 471.461 245.541 471.986Z" fill="white"/>
<path opacity="0.4" d="M247.75 474.461C247.618 474.742 247.085 474.793 246.56 474.576C246.035 474.359 245.717 473.955 245.849 473.674C245.982 473.393 246.515 473.342 247.04 473.559C247.565 473.777 247.883 474.181 247.75 474.461Z" fill="white"/>
<path opacity="0.4" d="M244.402 474.002C244.306 474.214 243.974 474.279 243.661 474.147C243.349 474.016 243.173 473.738 243.27 473.526C243.366 473.314 243.698 473.249 244.01 473.38C244.323 473.512 244.499 473.79 244.402 474.002Z" fill="white"/>
<path d="M409.057 477.255C408.198 478.742 406.53 479.575 404.812 479.575H383.834C375.191 479.575 369.255 470.756 380.534 465.414C390.754 460.572 413.488 469.585 409.057 477.255Z" fill="#007FFF"/>
<path opacity="0.2" d="M409.057 477.255C408.198 478.742 406.53 479.575 404.812 479.575H383.834C375.191 479.575 369.255 470.756 380.534 465.414C390.754 460.572 413.488 469.585 409.057 477.255Z" fill="white"/>
<path opacity="0.4" d="M402.425 469.8C402.144 470.47 400.629 470.495 399.041 469.856C397.453 469.216 396.394 468.154 396.675 467.484C396.957 466.814 398.472 466.789 400.06 467.429C401.648 468.068 402.707 469.13 402.425 469.8Z" fill="white"/>
<path opacity="0.4" d="M405.249 472.962C405.079 473.321 404.399 473.386 403.728 473.109C403.058 472.831 402.651 472.315 402.821 471.957C402.99 471.598 403.671 471.532 404.341 471.81C405.012 472.088 405.418 472.604 405.249 472.962Z" fill="white"/>
<path opacity="0.4" d="M400.971 472.375C400.848 472.646 400.424 472.729 400.025 472.561C399.625 472.393 399.401 472.038 399.524 471.767C399.647 471.497 400.071 471.414 400.47 471.581C400.87 471.749 401.094 472.105 400.971 472.375Z" fill="white"/>
<path opacity="0.3" d="M478.888 270.59C483.439 268.717 485.61 263.509 483.737 258.958C481.863 254.407 476.655 252.236 472.104 254.109C467.553 255.982 465.382 261.19 467.255 265.741C469.128 270.293 474.336 272.464 478.888 270.59Z" fill="#007FFF"/>
<path opacity="0.3" d="M506.039 269.981C506.039 273.422 503.25 276.211 499.809 276.211C496.368 276.211 493.579 273.422 493.579 269.981C493.579 266.54 496.368 263.751 499.809 263.751C503.25 263.751 506.039 266.54 506.039 269.981Z" fill="#007FFF"/>
<path opacity="0.3" d="M498.838 248.982C498.838 251.443 496.843 253.438 494.382 253.438C491.922 253.438 489.927 251.443 489.927 248.982C489.927 246.522 491.922 244.527 494.382 244.527C496.843 244.527 498.838 246.522 498.838 248.982Z" fill="#007FFF"/>
<path opacity="0.3" d="M484.408 291.585C486.044 291.585 487.371 290.259 487.371 288.622C487.371 286.985 486.044 285.659 484.408 285.659C482.771 285.659 481.444 286.985 481.444 288.622C481.444 290.259 482.771 291.585 484.408 291.585Z" fill="#007FFF"/>
<path opacity="0.3" d="M487.371 237.026C487.371 238.662 486.044 239.989 484.408 239.989C482.771 239.989 481.444 238.662 481.444 237.026C481.444 235.389 482.771 234.062 484.408 234.062C486.044 234.062 487.371 235.389 487.371 237.026Z" fill="#007FFF"/>
<path d="M235.852 107.219H233.076V398.787H235.852V107.219Z" fill="#263238"/>
<path opacity="0.4" d="M235.852 107.219H233.076V398.787H235.852V107.219Z" fill="white"/>
<path d="M307.81 107.219H305.033V398.787H307.81V107.219Z" fill="#263238"/>
<path opacity="0.4" d="M307.81 107.219H305.033V398.787H307.81V107.219Z" fill="white"/>
<path d="M386.743 107.219H383.967V398.787H386.743V107.219Z" fill="#263238"/>
<path opacity="0.4" d="M386.743 107.219H383.967V398.787H386.743V107.219Z" fill="white"/>
<path opacity="0.3" d="M286.195 105.171C285.974 106.054 286.511 106.948 287.394 107.169C288.277 107.39 289.172 106.853 289.392 105.97C289.613 105.087 289.076 104.192 288.193 103.972C287.31 103.751 286.416 104.288 286.195 105.171Z" fill="#007FFF"/>
<path d="M322.118 165.146L324.774 164.159C326.878 163.377 329.239 164.459 330.02 166.563L319.714 170.391C318.933 168.288 320.014 165.927 322.118 165.146Z" fill="#263238"/>
<path d="M339.425 220.337L347.698 217.264C351.09 216.004 352.834 212.198 351.574 208.806L338.551 173.749C336.446 168.082 330.087 165.168 324.42 167.273C318.753 169.378 315.838 175.737 317.944 181.404L330.966 216.461C332.226 219.853 336.033 221.597 339.425 220.337Z" fill="#007FFF"/>
<path opacity="0.6" d="M339.425 220.337L347.698 217.264C351.09 216.004 352.834 212.198 351.574 208.806L338.551 173.749C336.446 168.082 330.087 165.168 324.42 167.273C318.753 169.378 315.838 175.737 317.944 181.404L330.966 216.461C332.226 219.853 336.033 221.597 339.425 220.337Z" fill="white"/>
<path d="M322.578 193.878C329.806 192.423 336.76 189.84 343.185 186.223C342.272 183.765 341.358 181.306 340.445 178.847C334.02 182.465 327.066 185.048 319.838 186.503C320.751 188.961 321.664 191.419 322.578 193.878Z" fill="#263238"/>
<path d="M328.608 211.54C335.712 209.75 342.666 207.167 349.216 203.885C348.585 202.188 347.955 200.49 347.324 198.793C340.775 202.076 333.821 204.659 326.717 206.448C327.347 208.145 327.978 209.843 328.608 211.54Z" fill="#263238"/>
<path opacity="0.2" d="M331.563 186.363C331.512 186.363 329.427 198.305 332.298 202.999C335.169 207.694 343.185 219.284 343.185 219.284L336.203 221.247L324.74 209.731L322.066 193.878L329.239 184.91L331.563 186.363Z" fill="black"/>
<path d="M322.155 143.53C320.087 140.472 316.177 139.114 312.486 139.08C309.534 139.053 306.533 139.774 304.084 141.421C301.634 143.067 300.786 145.902 300.364 148.823C299.943 151.745 300.069 154.699 302.43 156.471L314.603 161.138C316.203 160.825 317.034 161.792 318.528 161.138C320.021 160.485 322.188 158.174 322.97 156.743C323.7 155.409 323.853 153.841 323.922 152.322C324.059 149.282 323.86 146.05 322.155 143.53Z" fill="#263238"/>
<path opacity="0.3" d="M321.824 324.713L327.792 335.236C327.792 335.236 332.844 337.31 333.73 340.889C333.73 340.889 332.588 341.105 331.444 341.103C329.759 341.099 327.818 341.793 325.919 341.105C322.849 339.992 320.739 333.131 320.739 333.131L321.824 324.713Z" fill="black"/>
<path d="M317.023 290.517L318.131 289.15C320.767 290.325 327.456 284.788 330.044 291.429C332.328 297.289 337.098 317.918 345.954 332.788C347.175 334.838 347.698 338.753 342.504 339.211C335.716 339.809 328.58 344.305 323.621 336.88C318.315 328.936 327.006 312.221 316.834 295.771C315.818 294.129 315.894 291.91 317.023 290.517Z" fill="#007FFF"/>
<g opacity="0.3">
<path d="M317.023 290.517L318.131 289.15C320.767 290.325 327.456 284.788 330.044 291.429C332.328 297.289 337.098 317.918 345.954 332.788C347.175 334.838 347.698 338.753 342.504 339.211C335.716 339.809 328.58 344.305 323.621 336.88C318.315 328.936 327.006 312.221 316.834 295.771C315.818 294.129 315.894 291.91 317.023 290.517Z" fill="black"/>
</g>
<path d="M315.811 210.762C315.811 210.762 282.588 242.233 271.124 263.637C256.503 281.112 319.1 295.499 319.1 295.499C325.549 306.868 327.551 307.325 323.941 294.016C323.404 292.033 322.332 290.238 320.828 288.839C315.102 283.515 299.681 270.195 287.638 269.11C321.766 247.756 334.953 227.49 334.953 227.49L315.811 210.762Z" fill="#263238"/>
<path opacity="0.2" d="M297.156 262.824C301.863 259.429 308.74 254.227 312.42 251.113C310.433 251.028 316.684 234.788 314.67 236.03C312.242 237.529 298.898 258.765 297.156 262.824Z" fill="black"/>
<path opacity="0.2" d="M310.426 280.13C307.58 283.346 304.4 286.73 300.836 290.281C296.034 288.685 290.885 286.77 286.146 284.593C286.063 279.479 289.383 274.928 293.842 270.563C299.511 272.591 305.417 276.362 310.426 280.13Z" fill="black"/>
<path opacity="0.2" d="M310.981 293.385L315.487 284.134L312.683 281.775L305.024 291.628L310.981 293.385Z" fill="black"/>
<path d="M322.558 335.376L324.334 335.236C325.818 337.867 334.535 340.065 332.593 346.32C330.881 351.84 318.564 370.281 320.655 383.902C321.01 386.21 318.792 388.067 316.597 387.268C309.663 384.744 298.942 379.461 299.379 371.023C299.847 361.995 317.493 356.885 319.145 338.761C319.309 336.952 320.747 335.519 322.558 335.376Z" fill="#007FFF"/>
<path opacity="0.3" d="M326.942 338.073C326.942 338.073 329.938 341.837 324.08 354.446C318.221 367.055 315.624 369.645 312.787 368.154C309.167 366.252 315.509 353.834 315.509 353.834C315.509 353.834 306.306 367.968 312.513 370.107C318.72 372.247 325.379 354.127 327.175 348.707C328.971 343.286 329.532 338.328 326.942 338.073Z" fill="black"/>
<path d="M323.34 212.571C323.34 212.571 304.939 258.536 295.984 278.835C286.579 300.153 322.656 340.586 322.049 342.125C322.049 342.125 313.164 360.44 318.458 356.911C320.259 355.711 324.923 346.993 325.963 344.569C326.72 342.807 326.951 341.978 326.464 340.65C316.47 313.376 319.228 300.406 307.07 289.828C325.309 269.598 333.911 259.371 339.521 251.168C341.38 248.449 342.503 245.621 343.141 242.907C344.77 235.982 345.155 222.942 335.544 214.502L332.419 212.191L323.34 212.571Z" fill="#263238"/>
<path d="M337.449 216.373C337.449 216.373 318.157 225.063 310.377 244.069C309.4 244.949 303.089 232.782 303.605 219.661C306.599 214.563 324.577 210.526 332.881 210.179C334.627 211.974 336.565 214.603 337.449 216.373Z" fill="#007FFF"/>
<path opacity="0.3" d="M322.911 291.503C322.911 291.503 327.608 292.546 330.982 306.033C334.356 319.521 333.966 323.168 330.822 323.793C326.811 324.591 323.933 310.947 323.933 310.947C323.933 310.947 325.666 327.724 331.838 325.484C338.009 323.244 331.792 304.968 329.78 299.624C327.767 294.28 325.085 290.073 322.911 291.503Z" fill="black"/>
<path d="M305.143 178.083C305.143 178.083 302.812 170.43 296.737 173.78C293.426 175.606 281.703 193.421 281.377 193.825L263.724 184.117L260.787 188.922C260.787 188.922 277.373 204.371 283.62 202.901C289.867 201.43 300.516 186.279 302.681 183.325C304.366 181.027 304.929 179.06 305.096 178.3C305.143 178.083 305.159 177.965 305.159 177.965" fill="#007FFF"/>
<path d="M318.529 172.997C318.529 172.997 315.835 174.201 312.161 176.609C311.396 177.111 310.571 177.524 309.714 177.844C307.4 178.707 305.342 179.104 304.946 177.992C304.858 177.747 304.799 177.487 304.766 177.217C304.543 175.412 305.052 172.982 306.611 172.045C308.369 170.989 309.279 170.006 309.218 168.254C309.196 167.262 308.976 166.213 308.694 165.184L310.138 163.886L317.557 158.14C316.812 162.532 315.395 170.147 318.529 172.997Z" fill="#263238"/>
<path opacity="0.2" d="M309.222 168.638C311.164 167.806 313.384 166.212 313.426 164.062C313.438 163.157 313.358 162.286 313.215 161.716L308.919 166.077C309.116 166.897 309.158 167.427 309.222 168.638Z" fill="black"/>
<path d="M320.345 151.295C318.842 157.942 318.347 160.779 314.411 163.849C308.489 168.467 300.69 165.623 300.186 158.772C299.732 152.606 302.267 142.773 309.244 140.816C316.119 138.888 321.849 144.649 320.345 151.295Z" fill="#EBB376"/>
<path d="M311.686 152.312C311.568 152.937 311.112 153.404 310.668 153.355C310.225 153.306 309.961 152.76 310.079 152.135C310.197 151.509 310.652 151.042 311.096 151.091C311.539 151.14 311.803 151.687 311.686 152.312Z" fill="#263238"/>
<path d="M304.726 151.298C304.61 151.903 304.157 152.355 303.715 152.306C303.273 152.257 303.008 151.726 303.124 151.121C303.24 150.515 303.692 150.064 304.134 150.112C304.577 150.161 304.841 150.692 304.726 151.298Z" fill="#263238"/>
<path d="M313.073 150.043C312.986 150.041 312.903 150.004 312.844 149.934C311.934 148.838 310.723 149.021 310.709 149.023C310.529 149.051 310.367 148.93 310.351 148.748C310.335 148.567 310.469 148.396 310.651 148.366C310.715 148.356 312.235 148.125 313.364 149.486C313.477 149.621 313.452 149.832 313.308 149.956C313.239 150.015 313.155 150.044 313.073 150.043Z" fill="#263238"/>
<path d="M302.922 148.364C302.84 148.373 302.757 148.351 302.691 148.297C302.555 148.185 302.544 147.976 302.665 147.83C303.882 146.371 305.392 146.471 305.457 146.477C305.637 146.491 305.761 146.651 305.733 146.834C305.706 147.017 305.538 147.154 305.358 147.14C305.299 147.136 304.125 147.075 303.158 148.236C303.095 148.311 303.009 148.354 302.922 148.364Z" fill="#263238"/>
<path d="M306.558 151.352C306.558 151.352 305.174 153.732 303.779 155.145C303.536 155.392 303.611 155.809 303.919 155.971C304.709 156.386 305.718 156.238 305.718 156.238L306.558 151.352Z" fill="#D58745"/>
<path d="M311.233 151.094L309.737 150.525C309.737 150.525 310.43 151.788 311.233 151.094Z" fill="#263238"/>
<path d="M304.292 150.149L302.796 149.581C302.796 149.581 303.488 150.844 304.292 150.149Z" fill="#263238"/>
<path d="M321.657 157.047C320.681 158.322 319.275 159.018 318.052 159.159C316.212 159.371 315.67 156.386 316.513 154.682C317.272 153.148 319.162 152.316 320.849 152.895C322.511 153.465 322.774 155.589 321.657 157.047Z" fill="#EBB376"/>
<path opacity="0.2" d="M317.687 156.322C317.826 155.695 318.201 155.123 318.721 154.745C319.241 154.367 319.901 154.186 320.541 154.246" stroke="black" stroke-width="0.5" stroke-linecap="round" stroke-linejoin="round"/>
<path d="M297.697 181.732C297.087 184.537 293.389 190.28 298.569 198.71C301.11 202.556 302.28 210.366 303.605 219.661L332.881 210.179C327.605 204.012 326.854 203.643 331.08 179.184C331.826 174.869 328.67 170.86 324.3 170.573C323.133 170.496 321.897 170.441 320.633 170.424C315.72 170.358 311.696 170.341 307.397 170.884C305.973 171.065 304.501 171.297 303.097 171.544C298.031 172.435 299.356 174.112 297.697 181.732Z" fill="#007FFF"/>
<path d="M303.098 171.544C302.568 171.646 292.862 184.514 300.082 201.861L300.706 203.774C300.706 203.774 293.371 197.479 293.715 186.792C294.059 176.105 297.72 173.035 300.135 171.544C302.549 170.053 303.098 171.544 303.098 171.544Z" fill="#263238"/>
<path opacity="0.2" d="M322.065 178.847C322.193 182.514 326.338 188.268 329.171 190.974C329.474 188.393 329.999 186.787 330.491 183.714L322.065 178.847Z" fill="black"/>
<path opacity="0.3" d="M293.276 150.866C293.072 151.684 293.569 152.512 294.387 152.716C295.204 152.921 296.033 152.424 296.237 151.606C296.442 150.788 295.944 149.96 295.127 149.756C294.309 149.551 293.481 150.048 293.276 150.866Z" fill="#007FFF"/>
<path opacity="0.3" d="M293.087 121.332C292.595 123.3 293.792 125.293 295.759 125.785C297.727 126.276 299.72 125.08 300.212 123.112C300.703 121.145 299.507 119.151 297.54 118.66C295.572 118.168 293.579 119.365 293.087 121.332Z" fill="#007FFF"/>
<path opacity="0.3" d="M288.277 144.515C288.166 144.961 288.437 145.413 288.882 145.524C289.328 145.635 289.78 145.364 289.891 144.919C290.003 144.473 289.732 144.021 289.286 143.91C288.84 143.798 288.388 144.069 288.277 144.515Z" fill="#007FFF"/>
<path opacity="0.3" d="M301.758 132.983C301.647 133.429 301.918 133.881 302.364 133.992C302.81 134.103 303.261 133.832 303.373 133.387C303.484 132.941 303.213 132.489 302.767 132.378C302.321 132.266 301.87 132.538 301.758 132.983Z" fill="#007FFF"/>
<path opacity="0.3" d="M292.115 137.224C291.716 138.821 292.687 140.439 294.284 140.838C295.88 141.237 297.498 140.266 297.897 138.669C298.296 137.073 297.325 135.455 295.728 135.056C294.132 134.657 292.514 135.628 292.115 137.224Z" fill="#007FFF"/>
<path opacity="0.3" d="M281.911 127.618C281.224 130.37 282.897 133.158 285.649 133.846C288.401 134.534 291.189 132.86 291.876 130.108C292.564 127.357 290.891 124.568 288.139 123.881C285.387 123.193 282.599 124.867 281.911 127.618Z" fill="#007FFF"/>
<path d="M324.068 152.258C323.384 151.797 322.674 151.476 321.944 151.167C321.212 150.879 320.462 150.638 319.692 150.46C318.925 150.267 318.134 150.166 317.331 150.104C316.926 150.093 316.522 150.066 316.109 150.094C315.904 150.103 315.699 150.107 315.49 150.134C315.387 150.156 315.281 150.129 315.18 150.192C315.131 150.242 315.084 150.323 315.045 150.492C315.001 150.594 314.972 150.88 314.945 151.137C314.909 151.474 314.593 151.818 314.673 152.119L315.03 152.151C315.097 152.397 314.521 152.849 314.572 152.94C314.627 153.098 314.768 153.302 315.362 153.03C315.45 153.072 315.532 153.024 315.618 153.025C315.786 152.998 315.96 152.992 316.134 152.981C316.478 152.953 316.83 152.943 317.182 152.934C317.89 152.923 318.605 152.943 319.332 152.966C320.056 153.004 320.79 153.044 321.528 153.1C322.268 153.137 323.018 153.212 323.769 153.234L323.79 153.235C324.046 153.243 324.267 153.015 324.284 152.725C324.295 152.527 324.207 152.351 324.068 152.258Z" fill="#263238"/>
<path d="M264.59 185.716C264.59 185.716 265.852 183.476 265.256 181.434C264.661 179.393 264.728 177.604 264.18 176.118C263.632 174.631 262.88 176.633 262.695 177.779C262.511 178.925 262.29 180.222 261.451 179.944C260.613 179.666 255.547 174.006 254.34 173.753C253.134 173.5 253.667 174.672 253.667 174.672C253.667 174.672 252.4 173.33 251.731 173.687C251.558 173.78 251.305 174.277 251.787 174.979C252.87 176.558 255.316 179.755 255.316 179.755C255.179 179.569 251.879 175.839 251.312 175.344C250.57 174.698 249.892 174.772 249.531 175.214C249.018 175.843 252.952 180.608 252.978 180.925C252.978 180.925 250.804 178.106 249.77 178.269C248.735 178.431 250.006 180.281 251.437 181.698C252.748 182.997 254.981 185.89 256.442 187.082C258.243 188.55 259.782 189.132 261.733 188.164C263.685 187.196 264.59 185.716 264.59 185.716Z" fill="#263238"/>
<path opacity="0.3" d="M253.819 174.835C254.808 175.936 255.747 177.082 256.631 178.268" stroke="black" stroke-width="0.25" stroke-linecap="round" stroke-linejoin="round"/>
<path opacity="0.3" d="M253.735 182.069C254.772 180.463 256.291 179.173 258.043 178.41" stroke="black" stroke-width="0.25" stroke-linecap="round" stroke-linejoin="round"/>
<path opacity="0.3" d="M261.206 180.897C260.71 181.498 260.432 182.275 260.434 183.054C260.435 183.832 260.717 184.608 261.215 185.206" stroke="black" stroke-width="0.25" stroke-linecap="round" stroke-linejoin="round"/>
<path d="M319.849 152.24C321.78 152.24 321.783 149.24 319.849 149.24C317.919 149.24 317.916 152.24 319.849 152.24Z" fill="#263238"/>
<path d="M309.571 158.701C308.733 157.322 306.684 153.953 305.053 153.814C303.421 153.676 301.344 156.891 301.075 159.053C300.853 160.836 300.649 164.718 305.522 165.29C310.396 165.862 310.907 160.903 309.571 158.701Z" fill="#263238"/>
<path d="M301.251 205.852C300.629 206.009 315.276 208.414 328.45 201.861C328.45 201.861 328.535 203.939 329.962 206.471C329.962 206.471 321.574 214.992 302.364 211.472L301.251 205.852Z" fill="#263238"/>
<path opacity="0.2" d="M305.504 193.484C305.504 193.484 309.405 198.133 314.365 198.685C314.365 198.685 308.149 199.171 305.504 193.484Z" fill="black"/>
<path d="M319.714 170.391C319.064 170.751 313.978 174.389 316.126 181.029C318.274 187.669 328.658 195.026 328.658 195.026L329.42 189.275C329.42 189.275 320.443 184.676 319.837 179.469C319.148 173.539 323.413 170.391 323.413 170.391C323.413 170.391 322.066 169.09 319.714 170.391Z" fill="#263238"/>
<path d="M316.627 158.435C317.362 155.942 317.686 153.111 317.686 153.111C318.222 149.968 315.506 143.613 310.05 142.942C304.595 142.27 303.098 144.717 303.098 144.717C303.202 143.371 306.456 140.527 310.484 139.977C314.513 139.427 315.908 140.677 317.686 141.377C319.464 142.078 323.557 148.829 323.557 148.829C323.557 148.829 323.51 151.88 322.91 155.531C322.31 159.182 318.732 161.358 317.267 162.432C315.746 163.548 312.824 165.907 308.808 166.284C304.791 166.661 301.328 166.108 300.589 161.716C300.589 161.716 303.348 164.944 306.982 164.719C314.652 164.244 316.627 158.435 316.627 158.435Z" fill="#263238"/>
<path opacity="0.2" d="M309.571 158.701C308.733 157.322 306.684 153.953 305.053 153.814C303.421 153.676 301.344 156.891 301.075 159.053C300.853 160.836 300.649 164.718 305.522 165.29C310.396 165.862 310.907 160.903 309.571 158.701Z" fill="white"/>
<path d="M303.931 160.985C301.67 163.4 300.625 166.732 301.22 170.002C301.853 173.479 304.635 175.784 308.209 175.595C311.591 175.417 314.579 172.74 315.817 169.693C316.528 167.942 316.834 165.942 318.059 164.445C319.157 163.103 320.715 162.184 322.275 161.478C324.458 160.489 327.288 159.691 329.534 160.974C329.955 161.215 330.762 161.772 330.596 162.355C330.522 162.614 330.037 162.942 329.846 163.096C329.308 163.53 328.712 163.913 328.1 164.233C327.245 164.682 328.002 165.977 328.857 165.529C330.74 164.541 333.436 162.622 331.286 160.426C328.684 157.77 324.264 158.895 321.349 160.26C319.844 160.965 318.368 161.873 317.238 163.11C316.096 164.36 315.541 165.873 315.019 167.457C314.36 169.456 313.578 171.076 311.938 172.465C310.226 173.914 308.063 174.519 305.894 173.781C300.95 172.099 302.187 165.041 304.991 162.046C305.651 161.341 304.592 160.278 303.931 160.985Z" fill="#263238"/>
<g opacity="0.2">
<path d="M303.931 160.985C301.67 163.4 300.625 166.732 301.22 170.002C301.853 173.479 304.635 175.784 308.209 175.595C311.591 175.417 314.579 172.74 315.817 169.693C316.528 167.942 316.834 165.942 318.059 164.445C319.157 163.103 320.715 162.184 322.275 161.478C324.458 160.489 327.288 159.691 329.534 160.974C329.955 161.215 330.762 161.772 330.596 162.355C330.522 162.614 330.037 162.942 329.846 163.096C329.308 163.53 328.712 163.913 328.1 164.233C327.245 164.682 328.002 165.977 328.857 165.529C330.74 164.541 333.436 162.622 331.286 160.426C328.684 157.77 324.264 158.895 321.349 160.26C319.844 160.965 318.368 161.873 317.238 163.11C316.096 164.36 315.541 165.873 315.019 167.457C314.36 169.456 313.578 171.076 311.938 172.465C310.226 173.914 308.063 174.519 305.894 173.781C300.95 172.099 302.187 165.041 304.991 162.046C305.651 161.341 304.592 160.278 303.931 160.985Z" fill="white"/>
</g>
<path d="M324.659 161.716C324.659 162.946 323.662 163.944 322.431 163.944C321.201 163.944 320.203 162.946 320.203 161.716C320.203 160.485 321.201 159.488 322.431 159.488C323.662 159.488 324.659 160.485 324.659 161.716Z" fill="#263238"/>
<path d="M324.288 161.716C324.288 162.741 323.456 163.573 322.431 163.573C321.405 163.573 320.574 162.741 320.574 161.716C320.574 160.69 321.405 159.859 322.431 159.859C323.456 159.859 324.288 160.69 324.288 161.716Z" fill="#007FFF"/>
<path d="M323.646 163.286L322.537 163.698L323.041 165.054L324.15 164.642L323.646 163.286Z" fill="#263238"/>
<path d="M296.281 186.363C296.281 186.363 305.846 183.548 317.906 184.529L317.137 179.801C317.137 179.801 304.679 178.763 296.818 181.581L296.281 186.363Z" fill="#263238"/>
<path d="M313.749 205.223H306.118V212.855H313.749V205.223Z" fill="#263238"/>
<path opacity="0.2" d="M324.068 152.258C323.384 151.797 322.674 151.476 321.944 151.167C321.212 150.879 320.462 150.638 319.692 150.46C318.925 150.267 318.134 150.166 317.331 150.104C316.926 150.093 316.522 150.066 316.109 150.094C315.904 150.103 315.699 150.107 315.49 150.134C315.387 150.156 315.281 150.129 315.18 150.192C315.131 150.242 315.084 150.323 315.045 150.492C315.001 150.594 314.972 150.88 314.945 151.137C314.909 151.474 314.593 151.818 314.673 152.119L315.03 152.151C315.097 152.397 314.521 152.849 314.572 152.94C314.627 153.098 314.768 153.302 315.362 153.03C315.45 153.072 315.532 153.024 315.618 153.025C315.786 152.998 315.96 152.992 316.134 152.981C316.478 152.953 316.83 152.943 317.182 152.934C317.89 152.923 318.605 152.943 319.332 152.966C320.056 153.004 320.79 153.044 321.528 153.1C322.268 153.137 323.018 153.212 323.769 153.234L323.79 153.235C324.046 153.243 324.267 153.015 324.284 152.725C324.295 152.527 324.207 152.351 324.068 152.258Z" fill="white"/>
<path opacity="0.5" d="M313.29 147.693C314.223 148.038 314.874 148.879 314.995 149.867C315.48 153.832 313.726 155.002 310.908 154.867C307.797 154.717 306.994 152.964 305.085 152.575C303.177 152.186 300.949 154.774 300.007 153.601C299.016 152.369 299.175 148.288 300.919 147.001C302.37 145.93 309.881 146.435 313.29 147.693Z" fill="#007FFF"/>
<path d="M299.677 153.866C299.086 153.131 298.838 151.629 299.044 150.039C299.243 148.507 299.835 147.275 300.668 146.661C302.294 145.461 309.984 146.022 313.436 147.296C314.515 147.695 315.273 148.66 315.414 149.815C315.661 151.833 315.367 153.258 314.516 154.174C313.745 155.005 312.558 155.369 310.887 155.289C308.914 155.194 307.815 154.49 306.845 153.869C306.226 153.472 305.692 153.13 305.001 152.989C304.238 152.833 303.321 153.289 302.513 153.69C301.745 154.072 300.958 154.463 300.314 154.295C300.08 154.234 299.866 154.1 299.677 153.866ZM307.301 153.157C308.225 153.749 309.18 154.361 310.928 154.445C312.334 154.512 313.305 154.236 313.897 153.599C314.558 152.887 314.786 151.648 314.575 149.918C314.472 149.078 313.924 148.378 313.143 148.089C309.827 146.865 302.441 146.403 301.17 147.341C300.521 147.82 300.052 148.843 299.882 150.148C299.713 151.457 299.903 152.798 300.336 153.336C300.6 153.664 301.192 153.403 302.137 152.933C303.067 152.471 304.122 151.947 305.17 152.161C305.243 152.176 305.315 152.192 305.385 152.211C306.123 152.403 306.697 152.77 307.301 153.157Z" fill="#263238"/>
<path d="M259.362 188.335L265.043 193.286C265.043 193.286 269.317 188.96 269.682 186.876L264.522 184.009L259.362 188.335Z" fill="#263238"/>
<path d="M325.895 170.896C325.895 170.896 318.454 173.834 322.28 179.62C324.366 182.775 343.065 193.03 343.494 193.322C343.924 193.615 349.759 219.57 349.759 219.57L356.226 220.575C356.226 220.575 354.328 196.466 352.361 190.357C350.393 184.249 334.436 174.85 331.318 172.929C328.892 171.435 326.886 171.032 326.115 170.926C325.895 170.896 325.776 170.89 325.776 170.89" fill="#007FFF"/>
<path d="M350.358 219.699C350.358 219.699 347.975 220.787 347.241 222.825C346.507 224.864 345.379 226.297 344.938 227.85C344.497 229.403 346.318 228.205 347.157 227.372C347.997 226.539 348.957 225.603 349.481 226.335C350.005 227.067 350.781 234.768 351.623 235.7C352.465 236.632 352.729 235.347 352.729 235.347C352.729 235.347 352.968 237.213 353.732 237.319C353.931 237.347 354.438 237.089 354.462 236.222C354.517 234.271 354.421 230.171 354.421 230.171C354.421 230.407 354.901 235.459 355.072 236.206C355.295 237.183 355.898 237.53 356.46 237.382C357.26 237.171 356.879 230.887 357.048 230.611C357.048 230.611 357.147 234.236 358.096 234.723C359.046 235.209 359.108 232.924 358.781 230.898C358.48 229.041 358.377 225.32 357.888 223.462C357.286 221.172 356.367 219.77 354.179 219.397C351.991 219.023 350.358 219.699 350.358 219.699Z" fill="#263238"/>
<path opacity="0.3" d="M352.702 235.121C352.548 233.622 352.462 232.115 352.445 230.607" stroke="black" stroke-width="0.25" stroke-linecap="round" stroke-linejoin="round"/>
<path d="M349.466 220.575C349.466 220.575 348.225 212.757 348.225 212.803C348.225 213.35 356.216 212.324 356.216 212.324L356.287 221.583L349.466 220.575Z" fill="#263238"/>
<path opacity="0.3" d="M322.558 335.376L324.334 335.236C325.818 337.867 334.535 340.065 332.593 346.32C330.881 351.84 318.564 370.281 320.655 383.902C321.01 386.21 318.792 388.067 316.597 387.268C309.663 384.744 298.942 379.461 299.379 371.023C299.847 361.995 317.493 356.885 319.145 338.761C319.309 336.952 320.747 335.519 322.558 335.376Z" fill="black"/>
<path d="M426.78 100.174H193.732V109.665H426.78V100.174Z" fill="#263238"/>
<path d="M426.78 394.042H193.732V403.532H426.78V394.042Z" fill="#263238"/>
<path d="M199.752 104.919H193.732V398.787H199.752V104.919Z" fill="#263238"/>
<path d="M275.197 104.919H269.178V398.787H275.197V104.919Z" fill="#263238"/>
<path d="M350.642 104.919H344.623V398.787H350.642V104.919Z" fill="#263238"/>
<path d="M426.088 104.919H420.068V398.787H426.088V104.919Z" fill="#263238"/>
<path d="M422.93 170.082H199.604V172.195H422.93V170.082Z" fill="#263238"/>
<path d="M422.93 246.471H199.604V248.584H422.93V246.471Z" fill="#263238"/>
<path d="M422.93 322.86H199.604V324.972H422.93V322.86Z" fill="#263238"/>
<path opacity="0.8" d="M426.78 109.665V100.174H193.732V403.532H426.78V394.042H426.088V109.665H426.78ZM420.069 322.86H350.643V248.584H420.069V322.86ZM275.197 322.86V248.584H344.623V322.86H275.197ZM344.623 324.972V394.042H275.197V324.972H344.623ZM199.752 172.195H269.178V246.471H199.752V172.195ZM199.752 248.584H269.178V322.86H199.752V248.584ZM420.069 246.471H350.643V172.195H420.069V246.471ZM344.623 246.471H275.197V172.195H344.623V246.471ZM275.197 170.082V109.665H344.623V170.082H275.197ZM269.178 109.665V170.082H199.752V109.665H269.178ZM199.752 324.972H269.178V394.042H199.752V324.972ZM350.643 394.042V324.972H420.069V394.042H350.643ZM420.069 170.082H350.643V109.665H420.069V170.082Z" fill="white"/>
<path d="M383.967 95.3403H233.076V100.174H383.967V95.3403Z" fill="#263238"/>
<path opacity="0.4" d="M383.967 95.3403H233.076V100.174H383.967V95.3403Z" fill="white"/>
<path d="M255.335 67.8936H251.22V95.3403H255.335V67.8936Z" fill="#263238"/>
<path d="M262.459 67.8936H258.345V95.3403H262.459V67.8936Z" fill="#263238"/>
<path d="M368.538 67.8936H364.423V95.3403H368.538V67.8936Z" fill="#263238"/>
<path d="M375.662 67.8936H371.547V95.3403H375.662V67.8936Z" fill="#263238"/>
<path d="M336.379 305.656C336.379 305.656 347.888 282.425 347.035 270.49C346.183 258.554 342.986 238.093 344.691 237.88C346.396 237.667 364.725 239.585 373.464 262.817C382.202 286.048 383.067 295.83 383.067 295.83L336.379 305.656Z" fill="#007FFF"/>
<path opacity="0.3" d="M340.497 296.419C354.951 292.516 368.787 289.523 381.557 288.098C382.226 290.772 382.768 293.371 383.066 295.83L337.324 303.672L340.497 296.419Z" fill="black"/>
<path d="M391.978 390.275C391.978 390.275 409.192 436.116 414.028 437.276C418.863 438.437 420.797 427.798 422.151 418.514C423.505 409.23 421.218 387.975 421.218 387.975L391.978 390.275Z" fill="#007FFF"/>
<path opacity="0.3" d="M391.978 390.275C391.978 390.275 409.192 436.116 414.028 437.276C418.863 438.437 420.797 427.798 422.151 418.514C423.505 409.23 421.218 387.975 421.218 387.975L391.978 390.275Z" fill="black"/>
<path d="M124.015 276.365C124.015 276.365 137.749 273.694 162.166 306.886C186.583 340.078 176.219 343.713 208.675 341.395C231.653 339.754 234.273 337.859 234.273 337.859L239.202 326.283L249.569 334.42C249.569 334.42 277.766 323.094 315.536 309.649C353.306 296.203 359.791 295.535 411.297 295.44C476.779 295.32 522.299 324.372 524.607 331.684C526.15 336.574 526.896 346.945 489.889 357.628L475.391 361.061C475.391 361.061 480.351 364.876 473.102 372.507C465.853 380.137 407.1 396.161 348.346 390.438C348.346 390.438 293.408 440.035 267.465 428.971L312.865 384.334L282.344 380.137C282.344 380.137 264.794 395.016 246.481 395.779C246.481 395.779 260.047 378.989 258.881 377.535C258.881 377.535 230.076 371.362 228.932 371.362C227.787 371.362 212.231 386.256 203.752 378.611C202.741 377.7 209.093 366.402 209.093 366.402C209.093 366.402 196.503 359.154 186.965 360.68C177.427 362.206 164.074 394.253 132.408 404.554C132.408 404.554 154.536 363.732 150.721 347.327C146.906 330.921 122.107 283.613 124.015 276.365Z" fill="#007FFF"/>
<path d="M375.288 330.791C370.418 340.308 368.893 350.863 371.549 361.272C364.616 352.313 366.624 337.918 375.288 330.791Z" fill="#263238"/>
<path d="M383.14 329.705C378.27 339.222 376.745 349.777 379.401 360.186C372.468 351.227 374.476 336.832 383.14 329.705Z" fill="#263238"/>
<path d="M392.109 328.508C387.239 338.026 385.714 348.581 388.37 358.99C381.436 350.031 383.445 335.636 392.109 328.508Z" fill="#263238"/>
<path d="M401.077 327.312C396.208 336.829 394.683 347.384 397.338 357.794C390.405 348.835 392.413 334.439 401.077 327.312Z" fill="#263238"/>
<path d="M472.919 332.588C475.051 332.588 476.779 330.86 476.779 328.728C476.779 326.596 475.051 324.868 472.919 324.868C470.787 324.868 469.059 326.596 469.059 328.728C469.059 330.86 470.787 332.588 472.919 332.588Z" fill="#263238"/>
<path opacity="0.7" d="M515.732 347.206C514.305 340.14 488.579 333.545 451.839 341.446C412.884 349.824 377.907 368.452 365.447 374.637C361.87 376.413 348.347 390.438 348.347 390.438C407.1 396.161 465.854 380.137 473.102 372.507C480.351 364.876 475.392 361.061 475.392 361.061L489.889 357.628C502.268 354.054 510.419 350.516 515.732 347.206Z" fill="white"/>
<path opacity="0.7" d="M312.866 384.334L319.585 377.353L290.334 376.3C288.159 376.221 286.035 376.965 284.385 378.383L282.345 380.137L312.866 384.334Z" fill="white"/>
<path opacity="0.7" d="M258.882 377.535C258.882 377.535 262.144 374.949 260.691 373.289C259.239 371.629 236.204 367.271 232.054 368.931C227.903 370.591 228.932 371.362 228.932 371.362L258.882 377.535Z" fill="white"/>
<path opacity="0.7" d="M209.093 366.402L210.898 363.261L193.607 360.787C193.607 360.787 206.595 365.298 209.093 366.402Z" fill="white"/>
<path opacity="0.3" d="M430.457 352.767C429.697 352.799 464.396 342.096 489.057 357.825L475.392 361.061C475.392 361.061 470.543 351.07 430.457 352.767Z" fill="black"/>
</g>
<defs>
<clipPath id="clip0_987_17">
<rect width="500" height="500" fill="white" transform="translate(55 36)"/>
</clipPath>
</defs>
</svg>
