<svg width="311" height="50" viewBox="0 0 311 50" fill="none" xmlns="http://www.w3.org/2000/svg">
<path d="M25.9979 49.907C23.012 49.907 21.3989 49.4265 21.1587 48.4656L19.4598 41.8245H11.2743L9.78138 48.2082C9.57546 49.2721 7.92807 49.8041 4.83921 49.8041C3.19182 49.8041 1.97344 49.7183 1.18406 49.5467C0.394687 49.3407 0 49.1863 0 49.0833L9.11213 14.2307C9.11213 13.9562 11.4631 13.8189 16.165 13.8189C20.8669 13.8189 23.2179 13.9562 23.2179 14.2307L32.1241 49.1348C32.1241 49.3751 31.3347 49.5638 29.756 49.7011C28.1772 49.8384 26.9245 49.907 25.9979 49.907ZM12.5613 35.2865H17.9668L15.6502 24.6299H15.3413L12.5613 35.2865Z" fill="#007FFF"/>
<path d="M49.7246 48.9804C49.7246 49.6668 48.0257 50.01 44.6279 50.01C41.2302 50.01 39.5313 49.6668 39.5313 48.9804V23.137H33.3536C32.7702 23.137 32.3583 22.3476 32.1181 20.7688C32.0151 20.0138 31.9636 19.2416 31.9636 18.4522C31.9636 17.6628 32.0151 16.8906 32.1181 16.1355C32.3583 14.5568 32.7702 13.7674 33.3536 13.7674H55.7478C56.3313 13.7674 56.7431 14.5568 56.9834 16.1355C57.0863 16.8906 57.1378 17.6628 57.1378 18.4522C57.1378 19.2416 57.0863 20.0138 56.9834 20.7688C56.7431 22.3476 56.3313 23.137 55.7478 23.137H49.7246V48.9804Z" fill="#007FFF"/>
<path d="M59.555 46.7667V14.7456C59.555 14.0248 61.2882 13.6645 64.7546 13.6645C68.2553 13.6645 70.0056 14.0248 70.0056 14.7456V39.9712H77.9337C78.5515 39.9712 78.9805 40.7778 79.2207 42.3908C79.3237 43.1802 79.3752 43.9867 79.3752 44.8104C79.3752 45.6341 79.3237 46.475 79.2207 47.333C78.9462 48.9804 78.5 49.8041 77.8822 49.8041H62.0261C61.271 49.8041 60.6704 49.4952 60.2243 48.8774C59.7781 48.2596 59.555 47.5561 59.555 46.7667Z" fill="#007FFF"/>
<path d="M106.638 49.907C103.652 49.907 102.039 49.4265 101.799 48.4656L100.1 41.8245H91.9144L90.4214 48.2082C90.2155 49.2721 88.5681 49.8041 85.4793 49.8041C83.8319 49.8041 82.6135 49.7183 81.8241 49.5467C81.0348 49.3407 80.6401 49.1863 80.6401 49.0833L89.7522 14.2307C89.7522 13.9562 92.1032 13.8189 96.8051 13.8189C101.507 13.8189 103.858 13.9562 103.858 14.2307L112.764 49.1348C112.764 49.3751 111.975 49.5638 110.396 49.7011C108.817 49.8384 107.565 49.907 106.638 49.907ZM93.2014 35.2865H98.6069L96.2903 24.6299H95.9814L93.2014 35.2865Z" fill="#007FFF"/>
<path d="M144.388 48.6715C144.388 49.3922 142.774 49.7526 139.548 49.7526C136.322 49.7526 134.572 49.4952 134.297 48.9804L125.7 32.9183V48.9289C125.7 49.5467 124.104 49.8556 120.912 49.8556C117.755 49.8556 116.176 49.5467 116.176 48.9289V14.4882C116.176 13.9733 117.532 13.7159 120.243 13.7159C121.307 13.7159 122.542 13.8189 123.95 14.0248C125.391 14.1964 126.266 14.5396 126.575 15.0544L134.812 30.9106V14.7456C134.812 14.0935 136.408 13.7674 139.6 13.7674C142.792 13.7674 144.388 14.0935 144.388 14.7456V48.6715Z" fill="#007FFF"/>
<path d="M165.054 48.9804C165.054 49.6668 163.355 50.01 159.957 50.01C156.56 50.01 154.861 49.6668 154.861 48.9804V23.137H148.683C148.1 23.137 147.688 22.3476 147.447 20.7688C147.344 20.0138 147.293 19.2416 147.293 18.4522C147.293 17.6628 147.344 16.8906 147.447 16.1355C147.688 14.5568 148.1 13.7674 148.683 13.7674H171.077C171.661 13.7674 172.072 14.5568 172.313 16.1355C172.416 16.8906 172.467 17.6628 172.467 18.4522C172.467 19.2416 172.416 20.0138 172.313 20.7688C172.072 22.3476 171.661 23.137 171.077 23.137H165.054V48.9804Z" fill="#007FFF"/>
<path d="M178.797 40.9494V22.6221H175.142C174.558 22.6221 174.146 21.8842 173.906 20.4085C173.803 19.6877 173.752 18.9498 173.752 18.1948C173.752 17.4397 173.803 16.7018 173.906 15.9811C174.146 14.5053 174.558 13.7674 175.142 13.7674H192.439C193.023 13.7674 193.418 14.5053 193.623 15.9811C193.761 16.7018 193.829 17.4397 193.829 18.1948C193.829 18.9498 193.761 19.6877 193.623 20.4085C193.418 21.8842 193.023 22.6221 192.439 22.6221H188.99V40.9494H192.594C193.177 40.9494 193.589 41.6872 193.829 43.163C193.967 43.8838 194.035 44.6217 194.035 45.3767C194.035 46.1318 193.967 46.8697 193.829 47.5904C193.589 49.0662 193.177 49.8041 192.594 49.8041H175.245C174.661 49.8041 174.267 49.0662 174.061 47.5904C173.923 46.8697 173.855 46.1318 173.855 45.3767C173.855 44.6217 173.923 43.8838 174.061 43.163C174.267 41.6872 174.661 40.9494 175.245 40.9494H178.797Z" fill="#007FFF"/>
<path d="M197.47 47.436V16.5474C197.47 15.6894 197.676 15.0201 198.087 14.5396C198.534 14.0248 199.1 13.7674 199.786 13.7674H208.384C213.841 13.7674 217.976 15.1402 220.79 17.8859C223.639 20.6315 225.063 24.9559 225.063 30.8591C225.063 43.4891 219.675 49.8041 208.898 49.8041H200.095C198.345 49.8041 197.47 49.0147 197.47 47.436ZM207.354 23.5488V38.9416C207.354 39.6623 207.405 40.1257 207.508 40.3316C207.611 40.5032 207.92 40.589 208.435 40.589C210.323 40.589 211.747 39.8854 212.708 38.4783C213.703 37.0711 214.201 34.7373 214.201 31.4769C214.201 28.1821 213.686 26.037 212.657 25.0417C211.661 24.0464 210.065 23.5488 207.869 23.5488H207.354Z" fill="#007FFF"/>
<path d="M253.389 49.907C250.403 49.907 248.79 49.4265 248.55 48.4656L246.851 41.8245H238.665L237.172 48.2082C236.966 49.2721 235.319 49.8041 232.23 49.8041C230.583 49.8041 229.364 49.7183 228.575 49.5467C227.786 49.3407 227.391 49.1863 227.391 49.0833L236.503 14.2307C236.503 13.9562 238.854 13.8189 243.556 13.8189C248.258 13.8189 250.609 13.9562 250.609 14.2307L259.515 49.1348C259.515 49.3751 258.726 49.5638 257.147 49.7011C255.568 49.8384 254.315 49.907 253.389 49.907ZM239.952 35.2865H245.358L243.041 24.6299H242.732L239.952 35.2865Z" fill="#007FFF"/>
<path fill-rule="evenodd" clip-rule="evenodd" d="M291.733 36.861C291.735 37.4236 291.721 38.2768 291.721 38.2768C291.721 38.2768 290.949 37.9762 290.573 37.7266C290.196 37.4773 289.956 37.5152 289.692 37.4212C289.43 37.3295 286.745 37.4263 286.471 37.3398C286.196 37.2529 286.201 37.2047 286.072 37.164C285.945 37.1233 284.849 37.0289 284.849 37.0289C284.849 37.0289 284.874 36.3719 284.887 36.2345C284.899 36.0946 284.866 36.0029 284.847 35.9366C284.827 35.8678 284.849 35.3077 284.709 35.2338C284.572 35.1599 284.058 35.2058 284.058 35.2058C284.058 35.2058 283.971 34.9944 283.866 35.0276C283.761 35.0608 278.866 37.5942 278.422 37.7013C277.98 37.8083 276.189 38.1164 276.017 38.1086C275.845 38.101 275.712 38.0398 275.757 37.9509C275.804 37.8616 276.551 36.8685 276.66 36.7844C276.77 36.7006 276.78 36.8203 276.9 36.7006C277.022 36.5809 277.574 35.7557 277.875 35.5672C278.178 35.3788 279.195 35.0047 279.495 34.9205C279.797 34.8367 279.966 34.5871 279.966 34.5871C279.966 34.5871 284.383 33.7824 285.021 33.7571C285.66 33.729 286.191 33.9274 286.391 33.9835C286.591 34.0396 287.761 33.9274 288.033 33.9045C288.305 33.8816 288.307 33.9582 288.572 33.8792C288.836 33.7978 290.064 33.7646 290.75 33.6117C291.436 33.4565 291.735 33.3953 291.735 33.3953C291.735 33.3953 291.73 36.2981 291.733 36.861ZM304.31 20.4092C304.31 20.4092 304.013 20.2741 303.971 20.2208C303.926 20.1647 303.786 20.0707 303.751 19.9787C303.719 19.887 303.864 19.6274 303.864 19.6274C303.864 19.6274 303.866 19.5433 303.871 19.4366C303.876 19.3296 303.926 18.8993 303.784 18.7386C303.642 18.5809 303.529 18.4917 303.49 18.4585C303.449 18.4257 303.095 18.3669 303.095 18.3669C303.095 18.3669 302.953 18.1709 302.893 18.1405C302.833 18.1124 302.249 18.4664 302.249 18.4664C302.249 18.4664 302.314 18.6801 302.354 18.754C302.392 18.8279 302.671 18.9349 302.671 18.9349C302.671 18.9349 302.541 18.9653 302.392 19.0621C302.242 19.1589 302.292 19.1945 302.292 19.1945C302.292 19.1945 301.988 19.1257 301.97 19.1285C301.952 19.1309 301.374 19.4034 301.374 19.4034C301.374 19.4034 301.351 19.4619 301.304 19.5204C301.256 19.5765 300.977 19.2762 300.593 19.2482C300.211 19.2201 299.493 19.0392 299.33 19.0977C299.168 19.1538 297.818 19.849 297.818 19.849C297.818 19.849 297.748 19.8159 297.711 19.7752C297.673 19.7317 296.773 20.3022 296.753 20.3354C296.733 20.3709 296.828 20.5542 296.828 20.5542L294.954 21.7307L294.814 21.7587C294.814 21.7587 293.255 22.6243 293.105 22.7519C292.958 22.8791 292.836 23.088 292.836 23.088C292.836 23.088 292.005 23.587 291.93 23.6763C291.852 23.7652 291.92 23.745 292.067 24.0555C292.214 24.366 293.786 26.9915 293.861 27.1061C293.936 27.2206 296.099 26.2172 296.254 26.1335C296.408 26.0493 296.434 26.0975 296.528 26.1564C296.621 26.2148 296.311 26.4159 296.062 26.6146C295.812 26.813 295.727 27.0626 295.603 27.1772C295.478 27.2918 293.978 27.1823 293.978 27.1823C293.978 27.1823 293.205 27.4624 292.708 27.7781C292.215 28.0941 291.9 28.672 291.748 28.8502C291.596 29.0284 289.632 29.9706 288.761 30.3348C287.893 30.6987 287.489 31.0119 287.489 31.0119L286.513 31.2616C286.296 31.3177 285.937 31.2462 285.425 31.2106C284.916 31.1751 283.849 31.1901 282.915 31.4627C281.982 31.7352 279.717 32.9216 279.632 32.9678C279.547 33.0136 279.565 32.9267 279.377 32.9496C279.19 32.9726 278.309 33.3751 278.123 33.3672C277.935 33.3597 277.915 33.2937 277.815 33.2527C277.718 33.212 277.506 33.2807 277.344 33.291C277.182 33.3012 276.99 33.1408 276.768 33.0721C276.548 33.0033 276.014 32.9804 275.929 32.9955C275.845 33.0109 275.727 33.1381 275.667 33.1689C275.607 33.202 275.548 33.2349 275.383 33.4182C275.218 33.6015 274.522 35.3282 274.377 36.018C274.23 36.7081 273.676 37.9355 273.676 37.9355C273.676 37.9355 273.297 37.8285 273.195 37.836C273.092 37.8463 271.521 37.0696 271.441 37.0368C271.361 37.0009 271.341 37.1691 271.341 37.1691C271.341 37.1691 270.954 37.4872 270.59 37.64C270.223 37.7929 269.946 37.849 269.779 37.9711C269.612 38.0935 269.215 38.8904 269.215 38.8904C269.215 38.8904 269.944 39.3715 270.59 39.5829C271.239 39.7942 272.613 39.9854 272.613 39.9854C272.613 39.9854 272.621 40.0589 272.436 40.3801C272.252 40.7008 270.001 43.9778 269.926 44.1283C269.852 44.2784 269.989 44.4234 270.059 44.5253C270.128 44.6296 270.296 44.803 270.39 44.9863C270.485 45.1696 270.66 46.4709 270.66 46.4709C270.66 46.4709 270.852 46.3662 271.004 46.1881C271.156 46.0099 271.743 45.1898 272.354 44.4822C272.965 43.7716 275.071 39.8069 275.071 39.8069C275.071 39.8069 275.48 39.7101 275.952 39.6721C276.423 39.6338 278.886 38.7631 279.926 38.6995C280.967 38.6332 282.17 38.6687 282.387 38.6458C282.604 38.6205 282.761 38.5976 283.2 38.7043C283.639 38.809 284.422 39.1349 284.749 39.3182C285.076 39.5015 285.298 39.191 285.298 39.191C285.298 39.191 287.254 40.0846 288.045 40.4539C288.836 40.8229 291.012 41.2532 291.476 41.406C291.94 41.5613 292.801 41.5004 293.227 41.3475C293.654 41.1947 293.844 41.0292 294.091 40.721C294.338 40.4129 294.475 39.8835 294.475 39.8835C294.475 39.8835 294.493 39.8732 294.572 39.8069C294.652 39.7409 295.625 37.2505 295.94 35.8576C296.256 34.4623 296.349 32.7055 296.349 32.7055C296.349 32.7055 296.606 32.5806 296.798 32.4763C296.99 32.3717 297.017 32.2776 297.017 32.2776C297.017 32.2776 297.09 32.4736 297.152 32.5957C297.215 32.7181 297.367 32.6518 297.367 32.6518L298.187 34.4291C298.187 34.4291 298.192 34.6151 298.09 34.74C297.988 34.8672 297.456 35.0225 297.456 35.0225C297.456 35.0225 297.392 35.8094 297.377 35.8959C297.362 35.9824 297.509 35.9263 297.639 35.8702C297.771 35.8145 297.876 35.7813 298.07 35.5495C298.265 35.3179 298.824 34.4342 298.844 34.1186C298.864 33.8029 298.39 32.4531 298.39 32.4531C298.39 32.4531 298.814 32.2369 299.006 32.1655C299.198 32.0916 299.053 32.1402 299.013 32.0051C298.973 31.87 299.068 31.8166 299.175 31.7277C299.283 31.6385 299.388 31.7226 299.48 31.7811C299.572 31.8396 299.488 31.8549 299.49 31.9466C299.493 32.0382 299.435 32.1655 299.43 32.4175C299.425 32.6723 299.575 33.1076 299.557 33.3672C299.54 33.6271 299.19 35.8398 299.25 36.0105C299.31 36.1811 299.27 36.3135 299.298 36.4229C299.325 36.5323 299.28 36.652 299.28 36.652C299.28 36.652 299.153 36.94 299.188 37.0621C299.22 37.1842 299.719 37.2276 299.834 37.1818C299.949 37.1359 299.937 37.1411 300.011 36.2854C300.086 35.4298 299.797 32.0841 299.797 32.0841C299.797 32.0841 299.809 32.0765 299.847 32.0636C299.887 32.0509 300.066 32.1884 300.118 32.2599C300.171 32.331 300.388 32.7003 300.505 32.764C300.623 32.8252 300.75 32.7486 300.837 32.7079C300.925 32.6672 300.907 32.741 300.969 32.7995C301.032 32.8607 301.199 32.9168 301.199 32.9168C301.199 32.9168 301.202 33.6983 301.204 33.7366C301.209 33.7749 300.82 33.7342 300.75 33.7492C300.68 33.7646 300.687 33.7749 300.643 33.9708C300.6 34.1668 300.727 35.5854 300.76 35.6616C300.792 35.7379 301.349 35.7328 301.443 35.7355C301.538 35.7379 301.586 35.6972 301.586 35.6972C301.586 35.6972 301.943 35.5573 302.027 35.425C302.112 35.2923 302.215 35.0173 302.182 34.6914C302.15 34.3655 302.017 34.0981 301.95 34.1134C301.88 34.1288 301.795 34.0957 301.743 34.0854C301.69 34.0751 301.703 33.9811 301.688 33.8487C301.673 33.7164 301.618 32.82 301.618 32.82L301.82 32.7106C301.923 32.6545 301.905 32.6648 301.94 32.5909C301.978 32.5143 301.978 32.4278 301.988 32.3286C301.997 32.2291 302.055 32.2216 302.087 32.1809C302.12 32.1402 302.145 32.1426 302.244 32.2445C302.344 32.3464 302.437 32.1402 302.494 31.9999C302.551 31.8601 302.417 31.7048 302.367 31.608C302.317 31.5112 302.369 31.5112 302.412 31.4271C302.451 31.343 302.542 30.895 302.542 30.895C302.542 30.895 302.668 30.8567 302.766 30.7955C302.863 30.7346 302.823 30.6402 302.791 30.4925C302.761 30.3451 302.614 30.3475 302.614 30.3475L302.461 30.1005C302.461 30.1005 302.709 30.131 303.025 30.0927C303.342 30.0547 304.527 30.1156 304.527 30.1156C304.527 30.1156 304.555 30.1234 304.645 30.2787C304.734 30.434 305.034 30.671 305.156 30.7448C305.278 30.8184 305.361 30.8286 305.418 30.8365C305.476 30.844 305.56 30.7828 305.603 30.8057C305.645 30.8286 305.855 30.9052 305.957 30.91C306.059 30.9179 306.089 30.7828 306.119 30.6888C306.147 30.5944 306.092 30.4288 306.092 30.4288C306.092 30.4288 306.289 30.3068 306.344 30.159C306.396 30.0113 306.341 29.9501 306.341 29.9501C306.341 29.9501 306.374 29.9248 306.446 29.9172C306.518 29.9094 306.561 29.6676 306.528 29.5605C306.496 29.4538 306.209 29.3034 306.209 29.3034C306.209 29.3034 306.194 29.2014 306.194 29.1149C306.194 29.0284 306.631 27.6228 306.72 27.1594C306.808 26.696 306.903 25.0309 306.903 25.0309C306.903 25.0309 306.98 25.0001 307.01 25.0001C307.04 25.0001 307.169 24.9238 307.19 24.8602C307.21 24.7939 307.075 24.3305 307.075 24.3305C307.075 24.3305 307.514 23.9663 307.671 23.9129C307.828 23.8596 308.263 23.9994 308.504 23.9919C308.747 23.984 308.926 23.8161 308.979 23.8414C309.031 23.8671 309.168 24.193 309.238 24.2795C309.308 24.3688 309.802 24.4348 309.872 24.4197C309.941 24.4044 309.917 24.2693 309.927 24.2159C309.937 24.1626 310.009 24.0938 310.009 24.0938L310.084 24.0911C310.084 24.0911 310.241 24.272 310.338 24.3281C310.436 24.3838 310.6 24.287 310.695 24.1574C310.79 24.0275 310.912 23.3654 310.872 23.1287C310.832 22.8917 310.76 22.8384 310.68 22.8028C310.6 22.7669 310.428 22.7898 310.371 22.7977C310.314 22.8052 309.612 22.6551 309.612 22.6551C309.612 22.6551 309.587 22.6523 309.58 22.5939C309.572 22.5354 309.555 22.4591 309.538 22.4232C309.517 22.3876 309.485 22.1917 309.485 22.1917C309.485 22.1917 309.934 21.993 309.984 21.942C310.034 21.8911 310.094 20.4014 310.046 20.3555C309.999 20.3097 309.465 20.2105 309.465 20.2105C309.465 20.2105 309.293 20.0296 309.225 19.9739C309.158 19.9178 309.088 19.9151 309.088 19.9151C309.088 19.9151 308.996 19.6504 308.859 19.388C308.721 19.1257 308.594 19.085 308.267 19.006C307.94 18.9246 306.82 18.7516 306.406 18.8993C305.992 19.0467 305.832 19.1818 305.603 19.5077C305.376 19.8364 305.356 20.0347 305.328 20.1264C305.301 20.2208 305.231 20.32 305.176 20.3658C305.124 20.4092 305.059 20.4934 304.937 20.4653C304.807 20.4523 304.31 20.4092 304.31 20.4092ZM303.135 20.9568C303.07 20.9287 303.025 20.8979 303.058 20.8675C303.093 20.8371 303.277 20.6842 303.337 20.6103C303.397 20.5341 303.534 20.4294 303.534 20.4294C303.534 20.4294 303.532 20.4065 303.532 20.4144L303.856 20.7403C303.856 20.7403 303.849 20.86 303.814 20.8904C303.779 20.9185 303.198 20.9848 303.135 20.9568ZM306.391 25.0716C306.391 25.0716 306.384 25.4354 306.349 25.4457C306.316 25.456 306.249 25.4307 306.266 25.3896C306.284 25.3489 306.284 25.0996 306.309 25.074C306.331 25.0487 306.391 25.0716 306.391 25.0716ZM305.254 28.1474C305.296 28.1245 305.635 28.0404 305.635 28.0404C305.635 28.0404 305.747 28.1526 305.73 28.1933C305.713 28.234 305.65 28.3943 305.56 28.4275C305.471 28.4607 305.226 28.5243 305.064 28.6365C304.899 28.7483 304.854 28.9241 304.767 28.947C304.679 28.9699 304.557 28.9443 304.495 28.9395C304.43 28.9343 304.161 28.8707 304.151 28.8376C304.141 28.8044 304.206 28.723 304.303 28.6286C304.4 28.537 304.834 28.0736 304.862 28.0506C304.889 28.0277 304.896 27.9693 304.942 28.0151C304.989 28.0609 305.029 28.155 305.064 28.1755C305.094 28.1956 305.211 28.1703 305.254 28.1474ZM305.65 27.2179C305.672 27.2459 305.713 27.2487 305.717 27.3301C305.722 27.4142 305.76 27.7935 305.695 27.7883C305.63 27.7832 305.518 27.3455 305.518 27.3455C305.543 27.3072 305.628 27.1926 305.65 27.2179ZM306.104 26.4693C306.144 26.472 306.294 26.6095 306.284 26.6526C306.276 26.696 305.947 27.6102 305.92 27.6738C305.892 27.7374 305.8 28.1067 305.815 28.0048C305.83 27.9029 305.815 27.2842 305.827 27.208L305.917 26.6731C305.967 26.6068 306.064 26.4693 306.104 26.4693ZM302.764 20.7553C302.764 20.7553 302.334 20.6561 302.252 20.585C302.167 20.5135 302.15 20.4855 302.16 20.4602C302.167 20.4321 302.237 20.2919 302.287 20.2639C302.337 20.2358 302.721 20.2054 302.863 20.1979C302.998 20.19 303.227 20.2105 303.24 20.2081C303.24 20.2181 303.23 20.3685 303.208 20.4219C303.182 20.478 303.03 20.6356 302.958 20.6791C302.883 20.7198 302.764 20.7553 302.764 20.7553ZM303.083 18.8737C303.083 18.8279 303.133 18.675 303.193 18.688C303.255 18.703 303.417 18.7208 303.514 18.833C303.612 18.9452 303.712 19.1487 303.667 19.2991C303.622 19.4493 303.552 19.6986 303.472 19.648C303.392 19.597 303.083 18.8737 303.083 18.8737ZM306.316 25.6954C306.319 25.7285 306.331 26.1153 306.301 26.1382C306.271 26.1612 306.102 26.141 306.104 26.1129C306.104 26.0849 306.214 25.6926 306.226 25.6724C306.241 25.6547 306.316 25.6954 306.316 25.6954Z" fill="#0055D5"/>
<path d="M85.5877 6.17594C85.6739 6.07274 85.7907 6.01328 85.9168 5.98032C86.2239 5.89913 86.5356 5.88889 86.85 5.92485C86.9684 5.93854 87.0576 5.99489 87.1144 6.09834C87.2107 6.27311 87.3733 6.36177 87.5513 6.43003C87.7392 6.50131 87.915 6.45323 88.0838 6.36747C88.4573 6.17779 88.8112 5.95584 89.1505 5.70751C89.3822 5.53875 89.6185 5.37876 89.8525 5.21176C90.3974 4.82221 90.9629 4.4666 91.5632 4.16715C91.9981 3.95035 92.4502 3.77863 92.9071 3.61552C93.107 3.54345 93.3061 3.4686 93.4651 3.3197C93.5701 3.22013 93.6412 3.09455 93.7235 2.97767C94.0354 2.54184 94.3012 2.07502 94.619 1.64163C94.9172 1.23574 95.2626 0.875463 95.65 0.553258C95.8994 0.346176 96.1625 0.162705 96.4717 0.0570342C96.5582 0.0267469 96.6457 0.00468013 96.7377 0.000330709C96.8689 -0.00561146 96.9249 0.0688733 96.8795 0.195498C96.8356 0.322397 96.7563 0.429552 96.674 0.532188C96.429 0.837687 96.224 1.16514 96.0905 1.5339C95.9479 1.9281 95.8203 2.32664 95.8111 2.75179C95.8078 2.88393 95.8161 3.01567 95.823 3.14862C95.8281 3.24981 95.8736 3.33143 95.9611 3.39006C96.0799 3.46897 96.2159 3.50555 96.3495 3.54836C96.918 3.73093 97.4865 3.91349 98.0555 4.0924C98.9534 4.37507 99.837 4.69784 100.733 4.9815C100.844 5.01718 100.955 5.04763 101.065 5.08332C101.257 5.14388 101.445 5.1228 101.631 5.0546C101.812 4.98783 101.993 4.92398 102.179 4.87129C102.51 4.77629 102.828 4.82356 103.143 4.9337C103.219 4.95991 103.311 4.99219 103.311 5.09366C103.311 5.19769 103.224 5.2369 103.138 5.26867C103.058 5.29749 102.976 5.32069 102.912 5.38376C102.876 5.41979 102.87 5.44993 102.893 5.49986C103.007 5.74579 103.208 5.86801 103.461 5.93364C103.674 5.98918 103.885 6.0506 104.102 6.08996C104.316 6.12986 104.522 6.12274 104.726 6.04105C105.097 5.89275 105.458 5.72144 105.817 5.54878C106.563 5.19283 107.313 4.84953 108.101 4.59271C108.516 4.45788 108.894 4.23797 109.271 4.02062C109.465 3.90944 109.657 3.79688 109.862 3.70629C109.892 3.69244 109.923 3.67898 109.954 3.6719C109.994 3.66268 110.037 3.65166 110.069 3.69157C110.103 3.73462 110.093 3.78204 110.071 3.8249C110.025 3.9149 109.952 3.98282 109.874 4.04451C109.791 4.11049 109.734 4.19067 109.713 4.29585C109.697 4.37089 109.673 4.44447 109.657 4.52077C109.636 4.62066 109.578 4.68133 109.474 4.69512C109.43 4.70085 109.387 4.70937 109.345 4.71826C109.251 4.73914 109.168 4.77016 109.12 4.86623C109.084 4.93611 109.017 4.97922 108.953 5.02278C108.333 5.44865 107.71 5.86852 107.094 6.30045C106.721 6.56285 106.348 6.82667 105.99 7.11314C105.8 7.26636 105.747 7.48007 105.771 7.71258C105.787 7.87062 105.763 7.91158 105.603 7.9185C105.437 7.92658 105.291 7.86715 105.154 7.77846C104.964 7.6544 104.803 7.49587 104.655 7.3241C104.571 7.22591 104.472 7.16635 104.345 7.15754C103.888 7.12786 103.43 7.07976 102.97 7.10955C102.827 7.11819 102.686 7.14573 102.553 7.20203C102.389 7.27071 102.347 7.35765 102.394 7.52677C102.428 7.6479 102.376 7.71338 102.251 7.71288C101.938 7.71086 101.714 7.54403 101.517 7.32254C101.459 7.25652 101.399 7.19026 101.353 7.1163C101.287 7.01115 101.193 6.95272 101.08 6.9167C101.019 6.89704 100.964 6.88891 100.898 6.92315C100.765 6.99241 100.612 6.99929 100.468 7.03139C100.366 7.05459 100.264 7.0754 100.172 7.13189C100.115 7.16759 100.079 7.21396 100.067 7.2808C100.039 7.43161 100.073 7.57099 100.147 7.70112C100.181 7.76104 100.22 7.81792 100.252 7.87886C100.284 7.93702 100.323 8.00194 100.28 8.06402C100.235 8.12946 100.163 8.17156 100.081 8.15961C99.524 8.07818 99.0435 7.85791 98.6911 7.39929C98.5871 7.26332 98.5117 7.10814 98.3986 6.97958C98.3282 6.89971 98.246 6.85387 98.1384 6.83834C97.5962 6.76217 97.0615 6.84921 96.5275 6.91393C95.9293 6.98592 95.3347 7.0874 94.7419 7.1994C94.6798 7.21082 94.6436 7.23642 94.6246 7.29528C94.5793 7.43486 94.5463 7.57958 94.5597 7.72541C94.594 8.09381 94.666 8.45543 94.8411 8.78863C94.9349 8.96947 95.0812 9.10181 95.2367 9.22678C95.4689 9.41221 95.7046 9.59309 95.9473 9.76499C95.9966 9.79924 96.0437 9.83829 96.0876 9.88048C96.1203 9.91282 96.1572 9.95122 96.1367 10.0032C96.1162 10.0553 96.0636 10.0582 96.0168 10.0582C95.9544 10.0579 95.8908 10.0573 95.8273 10.049C95.2977 9.98194 94.7816 9.86547 94.2911 9.64964C93.9733 9.51022 93.7142 9.28833 93.4822 9.03401C93.132 8.65145 92.8125 8.24468 92.5429 7.80091C92.4886 7.71088 92.4369 7.69582 92.3416 7.70476C91.8183 7.75339 91.2929 7.78605 90.7721 7.85481C90.3742 7.90816 89.9802 7.98714 89.5854 8.06449C89.5748 8.06636 89.5639 8.0682 89.5531 8.07118C89.518 8.08406 89.4577 8.05932 89.4494 8.09553C89.4404 8.13537 89.5012 8.15103 89.5332 8.17424C89.5938 8.21704 89.6623 8.24598 89.7305 8.27732C89.7829 8.30184 89.8372 8.32394 89.886 8.35415C89.9779 8.41102 90.0819 8.47153 90.0653 8.59846C90.0472 8.73297 89.9606 8.83068 89.8281 8.87027C89.6019 8.93726 89.3701 8.97847 89.1332 9.0056C88.9177 9.03046 88.7396 8.96221 88.5645 8.85818C88.5027 8.82137 88.4472 8.77825 88.4072 8.71586C88.3705 8.65672 88.3157 8.62387 88.2468 8.61056C88.0711 8.57665 87.8933 8.55413 87.7239 8.4954C87.5849 8.44648 87.4559 8.37984 87.3516 8.27375C87.3039 8.22427 87.2484 8.20832 87.1805 8.20964C86.8744 8.21816 86.6402 8.07016 86.4364 7.85893C86.4319 7.85543 86.4273 7.85193 86.4257 7.84655C86.3655 7.68645 86.2236 7.62648 86.0835 7.56424C86.0175 7.53465 85.9643 7.48656 85.913 7.43638C85.8219 7.34858 85.7819 7.24574 85.8251 7.12263C85.8515 7.04701 85.8351 6.99704 85.7615 6.96056C85.7235 6.94159 85.6908 6.90925 85.6589 6.87839C85.5495 6.77133 85.5348 6.67863 85.621 6.55595C85.657 6.50428 85.6587 6.46827 85.6273 6.41521C85.6007 6.37114 85.5902 6.31834 85.5723 6.26923C85.5754 6.23986 85.5816 6.20735 85.5877 6.17594Z" fill="#0055D5"/>
</svg>
