<svg width="70" height="70" viewBox="0 0 70 70" fill="none" xmlns="http://www.w3.org/2000/svg">
<rect width="70" height="70" rx="5" fill="#007FFF"/>
<path d="M43.0417 55C40.625 55 39.3194 54.6053 39.125 53.8158L37.75 48.36H31.125L29.9167 53.6043C29.75 54.4784 28.4167 54.9154 25.9167 54.9154C24.5833 54.9154 23.5972 54.8449 22.9583 54.704C22.3194 54.5348 22 54.4079 22 54.3233L29.375 25.691C29.375 25.4654 31.2778 25.3526 35.0833 25.3526C38.8889 25.3526 40.7917 25.4654 40.7917 25.691L48 54.3656C48 54.563 47.3611 54.7181 46.0833 54.8308C44.8055 54.9436 43.7917 55 43.0417 55ZM32.1667 42.9888H36.5417L34.6667 34.2341H34.4167L32.1667 42.9888Z" fill="white"/>
<path d="M26.0044 19.0737C26.0742 18.9889 26.1687 18.9401 26.2708 18.913C26.5193 18.8463 26.7716 18.8379 27.026 18.8674C27.1219 18.8787 27.1941 18.925 27.2401 19.01C27.318 19.1535 27.4496 19.2264 27.5937 19.2824C27.7457 19.341 27.888 19.3015 28.0247 19.2311C28.327 19.0752 28.6134 18.8929 28.888 18.6889C29.0755 18.5502 29.2668 18.4188 29.4562 18.2816C29.8972 17.9616 30.3549 17.6694 30.8408 17.4234C31.1927 17.2453 31.5587 17.1043 31.9284 16.9703C32.0902 16.911 32.2514 16.8496 32.3801 16.7272C32.465 16.6454 32.5226 16.5423 32.5892 16.4462C32.8416 16.0882 33.0568 15.7047 33.314 15.3486C33.5553 15.0152 33.8349 14.7192 34.1485 14.4545C34.3503 14.2844 34.5633 14.1337 34.8135 14.0469C34.8835 14.022 34.9544 14.0038 35.0288 14.0003C35.135 13.9954 35.1803 14.0566 35.1436 14.1606C35.108 14.2649 35.0439 14.3529 34.9772 14.4372C34.779 14.6882 34.613 14.9572 34.5049 15.2601C34.3896 15.584 34.2863 15.9114 34.2788 16.2607C34.2762 16.3692 34.2829 16.4775 34.2884 16.5867C34.2926 16.6698 34.3294 16.7369 34.4002 16.785C34.4964 16.8499 34.6065 16.8799 34.7146 16.9151C35.1747 17.0651 35.6348 17.215 36.0954 17.362C36.8221 17.5942 37.5372 17.8594 38.2626 18.0924C38.3519 18.1218 38.4418 18.1468 38.531 18.1761C38.6868 18.2258 38.8387 18.2085 38.9893 18.1525C39.1356 18.0976 39.2825 18.0452 39.4329 18.0019C39.7004 17.9239 39.9584 17.9627 40.2129 18.0532C40.2741 18.0747 40.349 18.1012 40.3489 18.1846C40.3486 18.27 40.2782 18.3023 40.2089 18.3284C40.1444 18.352 40.0776 18.3711 40.0257 18.4229C39.9969 18.4525 39.9922 18.4773 40.0107 18.5183C40.1029 18.7203 40.266 18.8207 40.4705 18.8747C40.643 18.9203 40.8133 18.9707 40.9894 19.0031C41.1622 19.0358 41.3287 19.03 41.4941 18.9629C41.7942 18.8411 42.0863 18.7003 42.3776 18.5585C42.9807 18.266 43.5882 17.984 44.2254 17.773C44.5614 17.6623 44.8673 17.4816 45.173 17.303C45.3294 17.2117 45.4848 17.1192 45.6507 17.0448C45.675 17.0334 45.7003 17.0224 45.7255 17.0166C45.7575 17.009 45.793 16.9999 45.8183 17.0327C45.8464 17.0681 45.8379 17.107 45.8206 17.1423C45.7834 17.2162 45.7243 17.272 45.6611 17.3227C45.5938 17.3769 45.5477 17.4428 45.5302 17.5292C45.5174 17.5908 45.4985 17.6513 45.4855 17.7139C45.4678 17.796 45.4215 17.8458 45.3372 17.8572C45.3015 17.8619 45.2666 17.8689 45.2325 17.8762C45.1566 17.8933 45.0897 17.9188 45.0504 17.9977C45.0215 18.0551 44.9675 18.0906 44.9154 18.1264C44.4139 18.4762 43.9092 18.8212 43.4111 19.176C43.109 19.3916 42.8067 19.6083 42.5176 19.8436C42.3631 19.9695 42.3202 20.1451 42.3396 20.3361C42.3529 20.4659 42.3338 20.4996 42.2043 20.5053C42.0693 20.5119 41.9512 20.4631 41.8408 20.3902C41.6865 20.2883 41.5565 20.1581 41.4368 20.0169C41.369 19.9363 41.2888 19.8874 41.186 19.8801C40.8158 19.8557 40.4452 19.8162 40.0731 19.8407C39.9569 19.8478 39.8431 19.8704 39.7353 19.9167C39.6025 19.9731 39.5689 20.0445 39.6067 20.1834C39.6341 20.283 39.5923 20.3368 39.4913 20.3363C39.2378 20.3347 39.0565 20.1976 38.8972 20.0157C38.8497 19.9614 38.8011 19.907 38.7642 19.8462C38.7111 19.7599 38.6349 19.7118 38.5436 19.6823C38.4941 19.6661 38.4491 19.6594 38.3963 19.6876C38.2885 19.7445 38.1643 19.7501 38.0477 19.7765C37.9651 19.7955 37.8828 19.8126 37.8087 19.859C37.7621 19.8884 37.7327 19.9265 37.7234 19.9814C37.7009 20.1053 37.7286 20.2198 37.7883 20.3267C37.8157 20.3759 37.847 20.4226 37.8732 20.4727C37.8988 20.5205 37.9308 20.5738 37.8959 20.6248C37.8593 20.6786 37.8011 20.7132 37.7345 20.7033C37.2839 20.6364 36.895 20.4555 36.6098 20.0787C36.5256 19.967 36.4646 19.8395 36.373 19.7339C36.3161 19.6683 36.2495 19.6306 36.1624 19.6179C35.7236 19.5553 35.2909 19.6268 34.8586 19.68C34.3745 19.7391 33.8932 19.8225 33.4135 19.9145C33.3632 19.9239 33.3339 19.9449 33.3185 19.9933C33.2819 20.1079 33.2552 20.2268 33.266 20.3466C33.2938 20.6493 33.3521 20.9464 33.4937 21.2201C33.5697 21.3687 33.6881 21.4774 33.8139 21.58C34.0019 21.7324 34.1926 21.881 34.389 22.0222C34.429 22.0503 34.4671 22.0824 34.5026 22.1171C34.5291 22.1437 34.559 22.1752 34.5424 22.2179C34.5258 22.2607 34.4832 22.2631 34.4453 22.2631C34.3948 22.2629 34.3434 22.2623 34.292 22.2555C33.8633 22.2004 33.4456 22.1048 33.0486 21.9274C32.7914 21.8129 32.5817 21.6306 32.394 21.4217C32.1105 21.1074 31.8519 20.7732 31.6337 20.4087C31.5898 20.3347 31.5479 20.3223 31.4708 20.3297C31.0473 20.3696 30.622 20.3965 30.2005 20.4529C29.8785 20.4968 29.5596 20.5617 29.24 20.6252C29.2314 20.6267 29.2226 20.6282 29.2138 20.6307C29.1855 20.6413 29.1366 20.6209 29.1299 20.6507C29.1226 20.6834 29.1718 20.6963 29.1977 20.7154C29.2468 20.7505 29.3022 20.7743 29.3575 20.8C29.3998 20.8202 29.4438 20.8383 29.4833 20.8632C29.5577 20.9099 29.6419 20.9596 29.6284 21.0639C29.6138 21.1744 29.5437 21.2547 29.4365 21.2872C29.2533 21.3422 29.0657 21.3761 28.874 21.3983C28.6996 21.4188 28.5554 21.3627 28.4137 21.2772C28.3637 21.247 28.3188 21.2116 28.2864 21.1603C28.2567 21.1117 28.2124 21.0847 28.1566 21.0738C28.0143 21.046 27.8705 21.0275 27.7333 20.9792C27.6209 20.939 27.5165 20.8843 27.432 20.7971C27.3934 20.7565 27.3485 20.7434 27.2936 20.7444C27.0458 20.7514 26.8563 20.6299 26.6913 20.4563C26.6876 20.4535 26.684 20.4506 26.6827 20.4462C26.6339 20.3146 26.5191 20.2654 26.4057 20.2142C26.3523 20.1899 26.3092 20.1504 26.2677 20.1092C26.194 20.0371 26.1616 19.9526 26.1966 19.8514C26.2179 19.7893 26.2047 19.7483 26.1451 19.7183C26.1143 19.7027 26.0878 19.6761 26.0621 19.6508C25.9735 19.5628 25.9616 19.4867 26.0314 19.3859C26.0605 19.3434 26.0619 19.3139 26.0364 19.2703C26.015 19.2341 26.0064 19.1907 25.992 19.1503C25.9944 19.1262 25.9995 19.0995 26.0044 19.0737Z" fill="#0055D5"/>
</svg>
